<svg xmlns="http://www.w3.org/2000/svg" version="1.1" width="150" height="150"><rect x="0" y="0" width="150" height="150" style="fill:#ffffff;shape-rendering:crispEdges;"></rect><path x="0" y="0" style="fill:#009900;shape-rendering:crispEdges;" d="M18.18,18.18 V22.73 H22.73 V18.18 H18.18 Z M22.73,18.18 V22.73 H27.27 V18.18 H22.73 Z M27.27,18.18 V22.73 H31.82 V18.18 H27.27 Z M31.82,18.18 V22.73 H36.36 V18.18 H31.82 Z M36.36,18.18 V22.73 H40.91 V18.18 H36.36 Z M40.91,18.18 V22.73 H45.45 V18.18 H40.91 Z M45.45,18.18 V22.73 H50 V18.18 H45.45 Z M54.55,18.18 V22.73 H59.09 V18.18 H54.55 Z M59.09,18.18 V22.73 H63.64 V18.18 H59.09 Z M81.82,18.18 V22.73 H86.36 V18.18 H81.82 Z M90.91,18.18 V22.73 H95.45 V18.18 H90.91 Z M100.00,18.18 V22.73 H104.55 V18.18 H100.00 Z M104.55,18.18 V22.73 H109.09 V18.18 H104.55 Z M109.09,18.18 V22.73 H113.64 V18.18 H109.09 Z M113.64,18.18 V22.73 H118.18 V18.18 H113.64 Z M118.18,18.18 V22.73 H122.73 V18.18 H118.18 Z M122.73,18.18 V22.73 H127.27 V18.18 H122.73 Z M127.27,18.18 V22.73 H131.82 V18.18 H127.27 Z M18.18,22.73 V27.27 H22.73 V22.73 H18.18 Z M45.45,22.73 V27.27 H50 V22.73 H45.45 Z M59.09,22.73 V27.27 H63.64 V22.73 H59.09 Z M68.18,22.73 V27.27 H72.73 V22.73 H68.18 Z M86.36,22.73 V27.27 H90.91 V22.73 H86.36 Z M100.00,22.73 V27.27 H104.55 V22.73 H100.00 Z M127.27,22.73 V27.27 H131.82 V22.73 H127.27 Z M18.18,27.27 V31.82 H22.73 V27.27 H18.18 Z M27.27,27.27 V31.82 H31.82 V27.27 H27.27 Z M31.82,27.27 V31.82 H36.36 V27.27 H31.82 Z M36.36,27.27 V31.82 H40.91 V27.27 H36.36 Z M45.45,27.27 V31.82 H50 V27.27 H45.45 Z M54.55,27.27 V31.82 H59.09 V27.27 H54.55 Z M59.09,27.27 V31.82 H63.64 V27.27 H59.09 Z M63.64,27.27 V31.82 H68.18 V27.27 H63.64 Z M68.18,27.27 V31.82 H72.73 V27.27 H68.18 Z M77.27,27.27 V31.82 H81.82 V27.27 H77.27 Z M100.00,27.27 V31.82 H104.55 V27.27 H100.00 Z M109.09,27.27 V31.82 H113.64 V27.27 H109.09 Z M113.64,27.27 V31.82 H118.18 V27.27 H113.64 Z M118.18,27.27 V31.82 H122.73 V27.27 H118.18 Z M127.27,27.27 V31.82 H131.82 V27.27 H127.27 Z M18.18,31.82 V36.36 H22.73 V31.82 H18.18 Z M27.27,31.82 V36.36 H31.82 V31.82 H27.27 Z M31.82,31.82 V36.36 H36.36 V31.82 H31.82 Z M36.36,31.82 V36.36 H40.91 V31.82 H36.36 Z M45.45,31.82 V36.36 H50 V31.82 H45.45 Z M59.09,31.82 V36.36 H63.64 V31.82 H59.09 Z M63.64,31.82 V36.36 H68.18 V31.82 H63.64 Z M100.00,31.82 V36.36 H104.55 V31.82 H100.00 Z M109.09,31.82 V36.36 H113.64 V31.82 H109.09 Z M113.64,31.82 V36.36 H118.18 V31.82 H113.64 Z M118.18,31.82 V36.36 H122.73 V31.82 H118.18 Z M127.27,31.82 V36.36 H131.82 V31.82 H127.27 Z M18.18,36.36 V40.91 H22.73 V36.36 H18.18 Z M27.27,36.36 V40.91 H31.82 V36.36 H27.27 Z M31.82,36.36 V40.91 H36.36 V36.36 H31.82 Z M36.36,36.36 V40.91 H40.91 V36.36 H36.36 Z M45.45,36.36 V40.91 H50 V36.36 H45.45 Z M54.55,36.36 V40.91 H59.09 V36.36 H54.55 Z M72.73,36.36 V40.91 H77.27 V36.36 H72.73 Z M77.27,36.36 V40.91 H81.82 V36.36 H77.27 Z M81.82,36.36 V40.91 H86.36 V36.36 H81.82 Z M86.36,36.36 V40.91 H90.91 V36.36 H86.36 Z M100.00,36.36 V40.91 H104.55 V36.36 H100.00 Z M109.09,36.36 V40.91 H113.64 V36.36 H109.09 Z M113.64,36.36 V40.91 H118.18 V36.36 H113.64 Z M118.18,36.36 V40.91 H122.73 V36.36 H118.18 Z M127.27,36.36 V40.91 H131.82 V36.36 H127.27 Z M18.18,40.91 V45.45 H22.73 V40.91 H18.18 Z M45.45,40.91 V45.45 H50 V40.91 H45.45 Z M68.18,40.91 V45.45 H72.73 V40.91 H68.18 Z M72.73,40.91 V45.45 H77.27 V40.91 H72.73 Z M81.82,40.91 V45.45 H86.36 V40.91 H81.82 Z M86.36,40.91 V45.45 H90.91 V40.91 H86.36 Z M100.00,40.91 V45.45 H104.55 V40.91 H100.00 Z M127.27,40.91 V45.45 H131.82 V40.91 H127.27 Z M18.18,45.45 V50 H22.73 V45.45 H18.18 Z M22.73,45.45 V50 H27.27 V45.45 H22.73 Z M27.27,45.45 V50 H31.82 V45.45 H27.27 Z M31.82,45.45 V50 H36.36 V45.45 H31.82 Z M36.36,45.45 V50 H40.91 V45.45 H36.36 Z M40.91,45.45 V50 H45.45 V45.45 H40.91 Z M45.45,45.45 V50 H50 V45.45 H45.45 Z M54.55,45.45 V50 H59.09 V45.45 H54.55 Z M63.64,45.45 V50 H68.18 V45.45 H63.64 Z M72.73,45.45 V50 H77.27 V45.45 H72.73 Z M81.82,45.45 V50 H86.36 V45.45 H81.82 Z M90.91,45.45 V50 H95.45 V45.45 H90.91 Z M100.00,45.45 V50 H104.55 V45.45 H100.00 Z M104.55,45.45 V50 H109.09 V45.45 H104.55 Z M109.09,45.45 V50 H113.64 V45.45 H109.09 Z M113.64,45.45 V50 H118.18 V45.45 H113.64 Z M118.18,45.45 V50 H122.73 V45.45 H118.18 Z M122.73,45.45 V50 H127.27 V45.45 H122.73 Z M127.27,45.45 V50 H131.82 V45.45 H127.27 Z M59.09,50 V54.55 H63.64 V50 H59.09 Z M68.18,50 V54.55 H72.73 V50 H68.18 Z M90.91,50 V54.55 H95.45 V50 H90.91 Z M22.73,54.55 V59.09 H27.27 V54.55 H22.73 Z M36.36,54.55 V59.09 H40.91 V54.55 H36.36 Z M45.45,54.55 V59.09 H50 V54.55 H45.45 Z M63.64,54.55 V59.09 H68.18 V54.55 H63.64 Z M72.73,54.55 V59.09 H77.27 V54.55 H72.73 Z M95.45,54.55 V59.09 H100.00 V54.55 H95.45 Z M109.09,54.55 V59.09 H113.64 V54.55 H109.09 Z M118.18,54.55 V59.09 H122.73 V54.55 H118.18 Z M127.27,54.55 V59.09 H131.82 V54.55 H127.27 Z M22.73,59.09 V63.64 H27.27 V59.09 H22.73 Z M31.82,59.09 V63.64 H36.36 V59.09 H31.82 Z M40.91,59.09 V63.64 H45.45 V59.09 H40.91 Z M50,59.09 V63.64 H54.55 V59.09 H50 Z M54.55,59.09 V63.64 H59.09 V59.09 H54.55 Z M59.09,59.09 V63.64 H63.64 V59.09 H59.09 Z M63.64,59.09 V63.64 H68.18 V59.09 H63.64 Z M72.73,59.09 V63.64 H77.27 V59.09 H72.73 Z M77.27,59.09 V63.64 H81.82 V59.09 H77.27 Z M86.36,59.09 V63.64 H90.91 V59.09 H86.36 Z M90.91,59.09 V63.64 H95.45 V59.09 H90.91 Z M95.45,59.09 V63.64 H100.00 V59.09 H95.45 Z M100.00,59.09 V63.64 H104.55 V59.09 H100.00 Z M104.55,59.09 V63.64 H109.09 V59.09 H104.55 Z M122.73,59.09 V63.64 H127.27 V59.09 H122.73 Z M18.18,63.64 V68.18 H22.73 V63.64 H18.18 Z M22.73,63.64 V68.18 H27.27 V63.64 H22.73 Z M27.27,63.64 V68.18 H31.82 V63.64 H27.27 Z M40.91,63.64 V68.18 H45.45 V63.64 H40.91 Z M45.45,63.64 V68.18 H50 V63.64 H45.45 Z M54.55,63.64 V68.18 H59.09 V63.64 H54.55 Z M59.09,63.64 V68.18 H63.64 V63.64 H59.09 Z M72.73,63.64 V68.18 H77.27 V63.64 H72.73 Z M77.27,63.64 V68.18 H81.82 V63.64 H77.27 Z M90.91,63.64 V68.18 H95.45 V63.64 H90.91 Z M100.00,63.64 V68.18 H104.55 V63.64 H100.00 Z M104.55,63.64 V68.18 H109.09 V63.64 H104.55 Z M27.27,68.18 V72.73 H31.82 V68.18 H27.27 Z M36.36,68.18 V72.73 H40.91 V68.18 H36.36 Z M40.91,68.18 V72.73 H45.45 V68.18 H40.91 Z M68.18,68.18 V72.73 H72.73 V68.18 H68.18 Z M72.73,68.18 V72.73 H77.27 V68.18 H72.73 Z M77.27,68.18 V72.73 H81.82 V68.18 H77.27 Z M86.36,68.18 V72.73 H90.91 V68.18 H86.36 Z M95.45,68.18 V72.73 H100.00 V68.18 H95.45 Z M100.00,68.18 V72.73 H104.55 V68.18 H100.00 Z M109.09,68.18 V72.73 H113.64 V68.18 H109.09 Z M113.64,68.18 V72.73 H118.18 V68.18 H113.64 Z M122.73,68.18 V72.73 H127.27 V68.18 H122.73 Z M18.18,72.73 V77.27 H22.73 V72.73 H18.18 Z M22.73,72.73 V77.27 H27.27 V72.73 H22.73 Z M36.36,72.73 V77.27 H40.91 V72.73 H36.36 Z M45.45,72.73 V77.27 H50 V72.73 H45.45 Z M90.91,72.73 V77.27 H95.45 V72.73 H90.91 Z M95.45,72.73 V77.27 H100.00 V72.73 H95.45 Z M100.00,72.73 V77.27 H104.55 V72.73 H100.00 Z M104.55,72.73 V77.27 H109.09 V72.73 H104.55 Z M127.27,72.73 V77.27 H131.82 V72.73 H127.27 Z M22.73,77.27 V81.82 H27.27 V77.27 H22.73 Z M36.36,77.27 V81.82 H40.91 V77.27 H36.36 Z M50,77.27 V81.82 H54.55 V77.27 H50 Z M54.55,77.27 V81.82 H59.09 V77.27 H54.55 Z M59.09,77.27 V81.82 H63.64 V77.27 H59.09 Z M63.64,77.27 V81.82 H68.18 V77.27 H63.64 Z M68.18,77.27 V81.82 H72.73 V77.27 H68.18 Z M72.73,77.27 V81.82 H77.27 V77.27 H72.73 Z M81.82,77.27 V81.82 H86.36 V77.27 H81.82 Z M86.36,77.27 V81.82 H90.91 V77.27 H86.36 Z M90.91,77.27 V81.82 H95.45 V77.27 H90.91 Z M104.55,77.27 V81.82 H109.09 V77.27 H104.55 Z M118.18,77.27 V81.82 H122.73 V77.27 H118.18 Z M18.18,81.82 V86.36 H22.73 V81.82 H18.18 Z M22.73,81.82 V86.36 H27.27 V81.82 H22.73 Z M36.36,81.82 V86.36 H40.91 V81.82 H36.36 Z M40.91,81.82 V86.36 H45.45 V81.82 H40.91 Z M45.45,81.82 V86.36 H50 V81.82 H45.45 Z M63.64,81.82 V86.36 H68.18 V81.82 H63.64 Z M68.18,81.82 V86.36 H72.73 V81.82 H68.18 Z M86.36,81.82 V86.36 H90.91 V81.82 H86.36 Z M104.55,81.82 V86.36 H109.09 V81.82 H104.55 Z M109.09,81.82 V86.36 H113.64 V81.82 H109.09 Z M18.18,86.36 V90.91 H22.73 V86.36 H18.18 Z M22.73,86.36 V90.91 H27.27 V86.36 H22.73 Z M27.27,86.36 V90.91 H31.82 V86.36 H27.27 Z M31.82,86.36 V90.91 H36.36 V86.36 H31.82 Z M36.36,86.36 V90.91 H40.91 V86.36 H36.36 Z M40.91,86.36 V90.91 H45.45 V86.36 H40.91 Z M68.18,86.36 V90.91 H72.73 V86.36 H68.18 Z M100.00,86.36 V90.91 H104.55 V86.36 H100.00 Z M118.18,86.36 V90.91 H122.73 V86.36 H118.18 Z M122.73,86.36 V90.91 H127.27 V86.36 H122.73 Z M127.27,86.36 V90.91 H131.82 V86.36 H127.27 Z M31.82,90.91 V95.45 H36.36 V90.91 H31.82 Z M45.45,90.91 V95.45 H50 V90.91 H45.45 Z M59.09,90.91 V95.45 H63.64 V90.91 H59.09 Z M68.18,90.91 V95.45 H72.73 V90.91 H68.18 Z M72.73,90.91 V95.45 H77.27 V90.91 H72.73 Z M77.27,90.91 V95.45 H81.82 V90.91 H77.27 Z M90.91,90.91 V95.45 H95.45 V90.91 H90.91 Z M95.45,90.91 V95.45 H100.00 V90.91 H95.45 Z M100.00,90.91 V95.45 H104.55 V90.91 H100.00 Z M104.55,90.91 V95.45 H109.09 V90.91 H104.55 Z M109.09,90.91 V95.45 H113.64 V90.91 H109.09 Z M118.18,90.91 V95.45 H122.73 V90.91 H118.18 Z M122.73,90.91 V95.45 H127.27 V90.91 H122.73 Z M127.27,90.91 V95.45 H131.82 V90.91 H127.27 Z M63.64,95.45 V100.00 H68.18 V95.45 H63.64 Z M72.73,95.45 V100.00 H77.27 V95.45 H72.73 Z M86.36,95.45 V100.00 H90.91 V95.45 H86.36 Z M90.91,95.45 V100.00 H95.45 V95.45 H90.91 Z M109.09,95.45 V100.00 H113.64 V95.45 H109.09 Z M118.18,95.45 V100.00 H122.73 V95.45 H118.18 Z M122.73,95.45 V100.00 H127.27 V95.45 H122.73 Z M18.18,100.00 V104.55 H22.73 V100.00 H18.18 Z M22.73,100.00 V104.55 H27.27 V100.00 H22.73 Z M27.27,100.00 V104.55 H31.82 V100.00 H27.27 Z M31.82,100.00 V104.55 H36.36 V100.00 H31.82 Z M36.36,100.00 V104.55 H40.91 V100.00 H36.36 Z M40.91,100.00 V104.55 H45.45 V100.00 H40.91 Z M45.45,100.00 V104.55 H50 V100.00 H45.45 Z M59.09,100.00 V104.55 H63.64 V100.00 H59.09 Z M63.64,100.00 V104.55 H68.18 V100.00 H63.64 Z M72.73,100.00 V104.55 H77.27 V100.00 H72.73 Z M77.27,100.00 V104.55 H81.82 V100.00 H77.27 Z M90.91,100.00 V104.55 H95.45 V100.00 H90.91 Z M100.00,100.00 V104.55 H104.55 V100.00 H100.00 Z M109.09,100.00 V104.55 H113.64 V100.00 H109.09 Z M18.18,104.55 V109.09 H22.73 V104.55 H18.18 Z M45.45,104.55 V109.09 H50 V104.55 H45.45 Z M81.82,104.55 V109.09 H86.36 V104.55 H81.82 Z M90.91,104.55 V109.09 H95.45 V104.55 H90.91 Z M109.09,104.55 V109.09 H113.64 V104.55 H109.09 Z M113.64,104.55 V109.09 H118.18 V104.55 H113.64 Z M127.27,104.55 V109.09 H131.82 V104.55 H127.27 Z M18.18,109.09 V113.64 H22.73 V109.09 H18.18 Z M27.27,109.09 V113.64 H31.82 V109.09 H27.27 Z M31.82,109.09 V113.64 H36.36 V109.09 H31.82 Z M36.36,109.09 V113.64 H40.91 V109.09 H36.36 Z M45.45,109.09 V113.64 H50 V109.09 H45.45 Z M54.55,109.09 V113.64 H59.09 V109.09 H54.55 Z M63.64,109.09 V113.64 H68.18 V109.09 H63.64 Z M86.36,109.09 V113.64 H90.91 V109.09 H86.36 Z M90.91,109.09 V113.64 H95.45 V109.09 H90.91 Z M95.45,109.09 V113.64 H100.00 V109.09 H95.45 Z M100.00,109.09 V113.64 H104.55 V109.09 H100.00 Z M104.55,109.09 V113.64 H109.09 V109.09 H104.55 Z M109.09,109.09 V113.64 H113.64 V109.09 H109.09 Z M113.64,109.09 V113.64 H118.18 V109.09 H113.64 Z M118.18,109.09 V113.64 H122.73 V109.09 H118.18 Z M122.73,109.09 V113.64 H127.27 V109.09 H122.73 Z M18.18,113.64 V118.18 H22.73 V113.64 H18.18 Z M27.27,113.64 V118.18 H31.82 V113.64 H27.27 Z M31.82,113.64 V118.18 H36.36 V113.64 H31.82 Z M36.36,113.64 V118.18 H40.91 V113.64 H36.36 Z M45.45,113.64 V118.18 H50 V113.64 H45.45 Z M72.73,113.64 V118.18 H77.27 V113.64 H72.73 Z M77.27,113.64 V118.18 H81.82 V113.64 H77.27 Z M90.91,113.64 V118.18 H95.45 V113.64 H90.91 Z M95.45,113.64 V118.18 H100.00 V113.64 H95.45 Z M100.00,113.64 V118.18 H104.55 V113.64 H100.00 Z M104.55,113.64 V118.18 H109.09 V113.64 H104.55 Z M109.09,113.64 V118.18 H113.64 V113.64 H109.09 Z M113.64,113.64 V118.18 H118.18 V113.64 H113.64 Z M122.73,113.64 V118.18 H127.27 V113.64 H122.73 Z M18.18,118.18 V122.73 H22.73 V118.18 H18.18 Z M27.27,118.18 V122.73 H31.82 V118.18 H27.27 Z M31.82,118.18 V122.73 H36.36 V118.18 H31.82 Z M36.36,118.18 V122.73 H40.91 V118.18 H36.36 Z M45.45,118.18 V122.73 H50 V118.18 H45.45 Z M63.64,118.18 V122.73 H68.18 V118.18 H63.64 Z M81.82,118.18 V122.73 H86.36 V118.18 H81.82 Z M113.64,118.18 V122.73 H118.18 V118.18 H113.64 Z M18.18,122.73 V127.27 H22.73 V122.73 H18.18 Z M45.45,122.73 V127.27 H50 V122.73 H45.45 Z M54.55,122.73 V127.27 H59.09 V122.73 H54.55 Z M63.64,122.73 V127.27 H68.18 V122.73 H63.64 Z M68.18,122.73 V127.27 H72.73 V122.73 H68.18 Z M72.73,122.73 V127.27 H77.27 V122.73 H72.73 Z M81.82,122.73 V127.27 H86.36 V122.73 H81.82 Z M86.36,122.73 V127.27 H90.91 V122.73 H86.36 Z M95.45,122.73 V127.27 H100.00 V122.73 H95.45 Z M100.00,122.73 V127.27 H104.55 V122.73 H100.00 Z M104.55,122.73 V127.27 H109.09 V122.73 H104.55 Z M109.09,122.73 V127.27 H113.64 V122.73 H109.09 Z M122.73,122.73 V127.27 H127.27 V122.73 H122.73 Z M127.27,122.73 V127.27 H131.82 V122.73 H127.27 Z M18.18,127.27 V131.82 H22.73 V127.27 H18.18 Z M22.73,127.27 V131.82 H27.27 V127.27 H22.73 Z M27.27,127.27 V131.82 H31.82 V127.27 H27.27 Z M31.82,127.27 V131.82 H36.36 V127.27 H31.82 Z M36.36,127.27 V131.82 H40.91 V127.27 H36.36 Z M40.91,127.27 V131.82 H45.45 V127.27 H40.91 Z M45.45,127.27 V131.82 H50 V127.27 H45.45 Z M59.09,127.27 V131.82 H63.64 V127.27 H59.09 Z M63.64,127.27 V131.82 H68.18 V127.27 H63.64 Z M72.73,127.27 V131.82 H77.27 V127.27 H72.73 Z M77.27,127.27 V131.82 H81.82 V127.27 H77.27 Z M81.82,127.27 V131.82 H86.36 V127.27 H81.82 Z M95.45,127.27 V131.82 H100.00 V127.27 H95.45 Z M100.00,127.27 V131.82 H104.55 V127.27 H100.00 Z M104.55,127.27 V131.82 H109.09 V127.27 H104.55 Z M109.09,127.27 V131.82 H113.64 V127.27 H109.09 Z M118.18,127.27 V131.82 H122.73 V127.27 H118.18 Z M127.27,127.27 V131.82 H131.82 V127.27 H127.27 Z "></path></svg>