<svg xmlns="http://www.w3.org/2000/svg" version="1.1" width="150" height="150"><rect x="0" y="0" width="150" height="150" style="fill:#ffffff;shape-rendering:crispEdges;"></rect><path x="0" y="0" style="fill:#000000;shape-rendering:crispEdges;" d="M10.53,10.53 V13.16 H13.16 V10.53 H10.53 Z M13.16,10.53 V13.16 H15.79 V10.53 H13.16 Z M15.79,10.53 V13.16 H18.42 V10.53 H15.79 Z M18.42,10.53 V13.16 H21.05 V10.53 H18.42 Z M21.05,10.53 V13.16 H23.68 V10.53 H21.05 Z M23.68,10.53 V13.16 H26.32 V10.53 H23.68 Z M26.32,10.53 V13.16 H28.95 V10.53 H26.32 Z M31.58,10.53 V13.16 H34.21 V10.53 H31.58 Z M34.21,10.53 V13.16 H36.84 V10.53 H34.21 Z M36.84,10.53 V13.16 H39.47 V10.53 H36.84 Z M42.11,10.53 V13.16 H44.74 V10.53 H42.11 Z M50,10.53 V13.16 H52.63 V10.53 H50 Z M52.63,10.53 V13.16 H55.26 V10.53 H52.63 Z M60.53,10.53 V13.16 H63.16 V10.53 H60.53 Z M65.79,10.53 V13.16 H68.42 V10.53 H65.79 Z M68.42,10.53 V13.16 H71.05 V10.53 H68.42 Z M81.58,10.53 V13.16 H84.21 V10.53 H81.58 Z M86.84,10.53 V13.16 H89.47 V10.53 H86.84 Z M94.74,10.53 V13.16 H97.37 V10.53 H94.74 Z M97.37,10.53 V13.16 H100.00 V10.53 H97.37 Z M105.26,10.53 V13.16 H107.89 V10.53 H105.26 Z M107.89,10.53 V13.16 H110.53 V10.53 H107.89 Z M115.79,10.53 V13.16 H118.42 V10.53 H115.79 Z M121.05,10.53 V13.16 H123.68 V10.53 H121.05 Z M123.68,10.53 V13.16 H126.32 V10.53 H123.68 Z M126.32,10.53 V13.16 H128.95 V10.53 H126.32 Z M128.95,10.53 V13.16 H131.58 V10.53 H128.95 Z M131.58,10.53 V13.16 H134.21 V10.53 H131.58 Z M134.21,10.53 V13.16 H136.84 V10.53 H134.21 Z M136.84,10.53 V13.16 H139.47 V10.53 H136.84 Z M10.53,13.16 V15.79 H13.16 V13.16 H10.53 Z M26.32,13.16 V15.79 H28.95 V13.16 H26.32 Z M42.11,13.16 V15.79 H44.74 V13.16 H42.11 Z M47.37,13.16 V15.79 H50 V13.16 H47.37 Z M50,13.16 V15.79 H52.63 V13.16 H50 Z M57.89,13.16 V15.79 H60.53 V13.16 H57.89 Z M63.16,13.16 V15.79 H65.79 V13.16 H63.16 Z M71.05,13.16 V15.79 H73.68 V13.16 H71.05 Z M76.32,13.16 V15.79 H78.95 V13.16 H76.32 Z M86.84,13.16 V15.79 H89.47 V13.16 H86.84 Z M97.37,13.16 V15.79 H100.00 V13.16 H97.37 Z M100.00,13.16 V15.79 H102.63 V13.16 H100.00 Z M105.26,13.16 V15.79 H107.89 V13.16 H105.26 Z M107.89,13.16 V15.79 H110.53 V13.16 H107.89 Z M110.53,13.16 V15.79 H113.16 V13.16 H110.53 Z M113.16,13.16 V15.79 H115.79 V13.16 H113.16 Z M115.79,13.16 V15.79 H118.42 V13.16 H115.79 Z M121.05,13.16 V15.79 H123.68 V13.16 H121.05 Z M136.84,13.16 V15.79 H139.47 V13.16 H136.84 Z M10.53,15.79 V18.42 H13.16 V15.79 H10.53 Z M15.79,15.79 V18.42 H18.42 V15.79 H15.79 Z M18.42,15.79 V18.42 H21.05 V15.79 H18.42 Z M21.05,15.79 V18.42 H23.68 V15.79 H21.05 Z M26.32,15.79 V18.42 H28.95 V15.79 H26.32 Z M31.58,15.79 V18.42 H34.21 V15.79 H31.58 Z M44.74,15.79 V18.42 H47.37 V15.79 H44.74 Z M50,15.79 V18.42 H52.63 V15.79 H50 Z M52.63,15.79 V18.42 H55.26 V15.79 H52.63 Z M57.89,15.79 V18.42 H60.53 V15.79 H57.89 Z M60.53,15.79 V18.42 H63.16 V15.79 H60.53 Z M68.42,15.79 V18.42 H71.05 V15.79 H68.42 Z M71.05,15.79 V18.42 H73.68 V15.79 H71.05 Z M73.68,15.79 V18.42 H76.32 V15.79 H73.68 Z M76.32,15.79 V18.42 H78.95 V15.79 H76.32 Z M78.95,15.79 V18.42 H81.58 V15.79 H78.95 Z M81.58,15.79 V18.42 H84.21 V15.79 H81.58 Z M86.84,15.79 V18.42 H89.47 V15.79 H86.84 Z M89.47,15.79 V18.42 H92.11 V15.79 H89.47 Z M94.74,15.79 V18.42 H97.37 V15.79 H94.74 Z M97.37,15.79 V18.42 H100.00 V15.79 H97.37 Z M100.00,15.79 V18.42 H102.63 V15.79 H100.00 Z M107.89,15.79 V18.42 H110.53 V15.79 H107.89 Z M113.16,15.79 V18.42 H115.79 V15.79 H113.16 Z M115.79,15.79 V18.42 H118.42 V15.79 H115.79 Z M121.05,15.79 V18.42 H123.68 V15.79 H121.05 Z M126.32,15.79 V18.42 H128.95 V15.79 H126.32 Z M128.95,15.79 V18.42 H131.58 V15.79 H128.95 Z M131.58,15.79 V18.42 H134.21 V15.79 H131.58 Z M136.84,15.79 V18.42 H139.47 V15.79 H136.84 Z M10.53,18.42 V21.05 H13.16 V18.42 H10.53 Z M15.79,18.42 V21.05 H18.42 V18.42 H15.79 Z M18.42,18.42 V21.05 H21.05 V18.42 H18.42 Z M21.05,18.42 V21.05 H23.68 V18.42 H21.05 Z M26.32,18.42 V21.05 H28.95 V18.42 H26.32 Z M31.58,18.42 V21.05 H34.21 V18.42 H31.58 Z M47.37,18.42 V21.05 H50 V18.42 H47.37 Z M55.26,18.42 V21.05 H57.89 V18.42 H55.26 Z M60.53,18.42 V21.05 H63.16 V18.42 H60.53 Z M63.16,18.42 V21.05 H65.79 V18.42 H63.16 Z M73.68,18.42 V21.05 H76.32 V18.42 H73.68 Z M76.32,18.42 V21.05 H78.95 V18.42 H76.32 Z M81.58,18.42 V21.05 H84.21 V18.42 H81.58 Z M86.84,18.42 V21.05 H89.47 V18.42 H86.84 Z M94.74,18.42 V21.05 H97.37 V18.42 H94.74 Z M102.63,18.42 V21.05 H105.26 V18.42 H102.63 Z M113.16,18.42 V21.05 H115.79 V18.42 H113.16 Z M121.05,18.42 V21.05 H123.68 V18.42 H121.05 Z M126.32,18.42 V21.05 H128.95 V18.42 H126.32 Z M128.95,18.42 V21.05 H131.58 V18.42 H128.95 Z M131.58,18.42 V21.05 H134.21 V18.42 H131.58 Z M136.84,18.42 V21.05 H139.47 V18.42 H136.84 Z M10.53,21.05 V23.68 H13.16 V21.05 H10.53 Z M15.79,21.05 V23.68 H18.42 V21.05 H15.79 Z M18.42,21.05 V23.68 H21.05 V21.05 H18.42 Z M21.05,21.05 V23.68 H23.68 V21.05 H21.05 Z M26.32,21.05 V23.68 H28.95 V21.05 H26.32 Z M31.58,21.05 V23.68 H34.21 V21.05 H31.58 Z M39.47,21.05 V23.68 H42.11 V21.05 H39.47 Z M42.11,21.05 V23.68 H44.74 V21.05 H42.11 Z M55.26,21.05 V23.68 H57.89 V21.05 H55.26 Z M57.89,21.05 V23.68 H60.53 V21.05 H57.89 Z M65.79,21.05 V23.68 H68.42 V21.05 H65.79 Z M68.42,21.05 V23.68 H71.05 V21.05 H68.42 Z M71.05,21.05 V23.68 H73.68 V21.05 H71.05 Z M73.68,21.05 V23.68 H76.32 V21.05 H73.68 Z M76.32,21.05 V23.68 H78.95 V21.05 H76.32 Z M78.95,21.05 V23.68 H81.58 V21.05 H78.95 Z M84.21,21.05 V23.68 H86.84 V21.05 H84.21 Z M86.84,21.05 V23.68 H89.47 V21.05 H86.84 Z M89.47,21.05 V23.68 H92.11 V21.05 H89.47 Z M92.11,21.05 V23.68 H94.74 V21.05 H92.11 Z M97.37,21.05 V23.68 H100.00 V21.05 H97.37 Z M100.00,21.05 V23.68 H102.63 V21.05 H100.00 Z M102.63,21.05 V23.68 H105.26 V21.05 H102.63 Z M105.26,21.05 V23.68 H107.89 V21.05 H105.26 Z M107.89,21.05 V23.68 H110.53 V21.05 H107.89 Z M121.05,21.05 V23.68 H123.68 V21.05 H121.05 Z M126.32,21.05 V23.68 H128.95 V21.05 H126.32 Z M128.95,21.05 V23.68 H131.58 V21.05 H128.95 Z M131.58,21.05 V23.68 H134.21 V21.05 H131.58 Z M136.84,21.05 V23.68 H139.47 V21.05 H136.84 Z M10.53,23.68 V26.32 H13.16 V23.68 H10.53 Z M26.32,23.68 V26.32 H28.95 V23.68 H26.32 Z M31.58,23.68 V26.32 H34.21 V23.68 H31.58 Z M39.47,23.68 V26.32 H42.11 V23.68 H39.47 Z M50,23.68 V26.32 H52.63 V23.68 H50 Z M55.26,23.68 V26.32 H57.89 V23.68 H55.26 Z M63.16,23.68 V26.32 H65.79 V23.68 H63.16 Z M68.42,23.68 V26.32 H71.05 V23.68 H68.42 Z M78.95,23.68 V26.32 H81.58 V23.68 H78.95 Z M86.84,23.68 V26.32 H89.47 V23.68 H86.84 Z M94.74,23.68 V26.32 H97.37 V23.68 H94.74 Z M100.00,23.68 V26.32 H102.63 V23.68 H100.00 Z M102.63,23.68 V26.32 H105.26 V23.68 H102.63 Z M110.53,23.68 V26.32 H113.16 V23.68 H110.53 Z M121.05,23.68 V26.32 H123.68 V23.68 H121.05 Z M136.84,23.68 V26.32 H139.47 V23.68 H136.84 Z M10.53,26.32 V28.95 H13.16 V26.32 H10.53 Z M13.16,26.32 V28.95 H15.79 V26.32 H13.16 Z M15.79,26.32 V28.95 H18.42 V26.32 H15.79 Z M18.42,26.32 V28.95 H21.05 V26.32 H18.42 Z M21.05,26.32 V28.95 H23.68 V26.32 H21.05 Z M23.68,26.32 V28.95 H26.32 V26.32 H23.68 Z M26.32,26.32 V28.95 H28.95 V26.32 H26.32 Z M31.58,26.32 V28.95 H34.21 V26.32 H31.58 Z M36.84,26.32 V28.95 H39.47 V26.32 H36.84 Z M42.11,26.32 V28.95 H44.74 V26.32 H42.11 Z M47.37,26.32 V28.95 H50 V26.32 H47.37 Z M52.63,26.32 V28.95 H55.26 V26.32 H52.63 Z M57.89,26.32 V28.95 H60.53 V26.32 H57.89 Z M63.16,26.32 V28.95 H65.79 V26.32 H63.16 Z M68.42,26.32 V28.95 H71.05 V26.32 H68.42 Z M73.68,26.32 V28.95 H76.32 V26.32 H73.68 Z M78.95,26.32 V28.95 H81.58 V26.32 H78.95 Z M84.21,26.32 V28.95 H86.84 V26.32 H84.21 Z M89.47,26.32 V28.95 H92.11 V26.32 H89.47 Z M94.74,26.32 V28.95 H97.37 V26.32 H94.74 Z M100.00,26.32 V28.95 H102.63 V26.32 H100.00 Z M105.26,26.32 V28.95 H107.89 V26.32 H105.26 Z M110.53,26.32 V28.95 H113.16 V26.32 H110.53 Z M115.79,26.32 V28.95 H118.42 V26.32 H115.79 Z M121.05,26.32 V28.95 H123.68 V26.32 H121.05 Z M123.68,26.32 V28.95 H126.32 V26.32 H123.68 Z M126.32,26.32 V28.95 H128.95 V26.32 H126.32 Z M128.95,26.32 V28.95 H131.58 V26.32 H128.95 Z M131.58,26.32 V28.95 H134.21 V26.32 H131.58 Z M134.21,26.32 V28.95 H136.84 V26.32 H134.21 Z M136.84,26.32 V28.95 H139.47 V26.32 H136.84 Z M42.11,28.95 V31.58 H44.74 V28.95 H42.11 Z M44.74,28.95 V31.58 H47.37 V28.95 H44.74 Z M52.63,28.95 V31.58 H55.26 V28.95 H52.63 Z M68.42,28.95 V31.58 H71.05 V28.95 H68.42 Z M78.95,28.95 V31.58 H81.58 V28.95 H78.95 Z M81.58,28.95 V31.58 H84.21 V28.95 H81.58 Z M84.21,28.95 V31.58 H86.84 V28.95 H84.21 Z M89.47,28.95 V31.58 H92.11 V28.95 H89.47 Z M92.11,28.95 V31.58 H94.74 V28.95 H92.11 Z M94.74,28.95 V31.58 H97.37 V28.95 H94.74 Z M97.37,28.95 V31.58 H100.00 V28.95 H97.37 Z M100.00,28.95 V31.58 H102.63 V28.95 H100.00 Z M105.26,28.95 V31.58 H107.89 V28.95 H105.26 Z M115.79,28.95 V31.58 H118.42 V28.95 H115.79 Z M15.79,31.58 V34.21 H18.42 V31.58 H15.79 Z M18.42,31.58 V34.21 H21.05 V31.58 H18.42 Z M21.05,31.58 V34.21 H23.68 V31.58 H21.05 Z M23.68,31.58 V34.21 H26.32 V31.58 H23.68 Z M26.32,31.58 V34.21 H28.95 V31.58 H26.32 Z M28.95,31.58 V34.21 H31.58 V31.58 H28.95 Z M47.37,31.58 V34.21 H50 V31.58 H47.37 Z M52.63,31.58 V34.21 H55.26 V31.58 H52.63 Z M57.89,31.58 V34.21 H60.53 V31.58 H57.89 Z M63.16,31.58 V34.21 H65.79 V31.58 H63.16 Z M65.79,31.58 V34.21 H68.42 V31.58 H65.79 Z M68.42,31.58 V34.21 H71.05 V31.58 H68.42 Z M71.05,31.58 V34.21 H73.68 V31.58 H71.05 Z M73.68,31.58 V34.21 H76.32 V31.58 H73.68 Z M76.32,31.58 V34.21 H78.95 V31.58 H76.32 Z M78.95,31.58 V34.21 H81.58 V31.58 H78.95 Z M84.21,31.58 V34.21 H86.84 V31.58 H84.21 Z M86.84,31.58 V34.21 H89.47 V31.58 H86.84 Z M100.00,31.58 V34.21 H102.63 V31.58 H100.00 Z M102.63,31.58 V34.21 H105.26 V31.58 H102.63 Z M105.26,31.58 V34.21 H107.89 V31.58 H105.26 Z M115.79,31.58 V34.21 H118.42 V31.58 H115.79 Z M118.42,31.58 V34.21 H121.05 V31.58 H118.42 Z M123.68,31.58 V34.21 H126.32 V31.58 H123.68 Z M126.32,31.58 V34.21 H128.95 V31.58 H126.32 Z M128.95,31.58 V34.21 H131.58 V31.58 H128.95 Z M131.58,31.58 V34.21 H134.21 V31.58 H131.58 Z M136.84,31.58 V34.21 H139.47 V31.58 H136.84 Z M10.53,34.21 V36.84 H13.16 V34.21 H10.53 Z M21.05,34.21 V36.84 H23.68 V34.21 H21.05 Z M28.95,34.21 V36.84 H31.58 V34.21 H28.95 Z M34.21,34.21 V36.84 H36.84 V34.21 H34.21 Z M39.47,34.21 V36.84 H42.11 V34.21 H39.47 Z M42.11,34.21 V36.84 H44.74 V34.21 H42.11 Z M47.37,34.21 V36.84 H50 V34.21 H47.37 Z M50,34.21 V36.84 H52.63 V34.21 H50 Z M52.63,34.21 V36.84 H55.26 V34.21 H52.63 Z M57.89,34.21 V36.84 H60.53 V34.21 H57.89 Z M63.16,34.21 V36.84 H65.79 V34.21 H63.16 Z M65.79,34.21 V36.84 H68.42 V34.21 H65.79 Z M71.05,34.21 V36.84 H73.68 V34.21 H71.05 Z M73.68,34.21 V36.84 H76.32 V34.21 H73.68 Z M81.58,34.21 V36.84 H84.21 V34.21 H81.58 Z M84.21,34.21 V36.84 H86.84 V34.21 H84.21 Z M97.37,34.21 V36.84 H100.00 V34.21 H97.37 Z M107.89,34.21 V36.84 H110.53 V34.21 H107.89 Z M123.68,34.21 V36.84 H126.32 V34.21 H123.68 Z M134.21,34.21 V36.84 H136.84 V34.21 H134.21 Z M13.16,36.84 V39.47 H15.79 V36.84 H13.16 Z M23.68,36.84 V39.47 H26.32 V36.84 H23.68 Z M26.32,36.84 V39.47 H28.95 V36.84 H26.32 Z M34.21,36.84 V39.47 H36.84 V36.84 H34.21 Z M36.84,36.84 V39.47 H39.47 V36.84 H36.84 Z M44.74,36.84 V39.47 H47.37 V36.84 H44.74 Z M47.37,36.84 V39.47 H50 V36.84 H47.37 Z M50,36.84 V39.47 H52.63 V36.84 H50 Z M55.26,36.84 V39.47 H57.89 V36.84 H55.26 Z M60.53,36.84 V39.47 H63.16 V36.84 H60.53 Z M76.32,36.84 V39.47 H78.95 V36.84 H76.32 Z M78.95,36.84 V39.47 H81.58 V36.84 H78.95 Z M81.58,36.84 V39.47 H84.21 V36.84 H81.58 Z M89.47,36.84 V39.47 H92.11 V36.84 H89.47 Z M92.11,36.84 V39.47 H94.74 V36.84 H92.11 Z M94.74,36.84 V39.47 H97.37 V36.84 H94.74 Z M100.00,36.84 V39.47 H102.63 V36.84 H100.00 Z M105.26,36.84 V39.47 H107.89 V36.84 H105.26 Z M118.42,36.84 V39.47 H121.05 V36.84 H118.42 Z M121.05,36.84 V39.47 H123.68 V36.84 H121.05 Z M134.21,36.84 V39.47 H136.84 V36.84 H134.21 Z M136.84,36.84 V39.47 H139.47 V36.84 H136.84 Z M13.16,39.47 V42.11 H15.79 V39.47 H13.16 Z M15.79,39.47 V42.11 H18.42 V39.47 H15.79 Z M18.42,39.47 V42.11 H21.05 V39.47 H18.42 Z M23.68,39.47 V42.11 H26.32 V39.47 H23.68 Z M31.58,39.47 V42.11 H34.21 V39.47 H31.58 Z M34.21,39.47 V42.11 H36.84 V39.47 H34.21 Z M36.84,39.47 V42.11 H39.47 V39.47 H36.84 Z M44.74,39.47 V42.11 H47.37 V39.47 H44.74 Z M47.37,39.47 V42.11 H50 V39.47 H47.37 Z M57.89,39.47 V42.11 H60.53 V39.47 H57.89 Z M60.53,39.47 V42.11 H63.16 V39.47 H60.53 Z M65.79,39.47 V42.11 H68.42 V39.47 H65.79 Z M68.42,39.47 V42.11 H71.05 V39.47 H68.42 Z M78.95,39.47 V42.11 H81.58 V39.47 H78.95 Z M81.58,39.47 V42.11 H84.21 V39.47 H81.58 Z M84.21,39.47 V42.11 H86.84 V39.47 H84.21 Z M86.84,39.47 V42.11 H89.47 V39.47 H86.84 Z M89.47,39.47 V42.11 H92.11 V39.47 H89.47 Z M97.37,39.47 V42.11 H100.00 V39.47 H97.37 Z M100.00,39.47 V42.11 H102.63 V39.47 H100.00 Z M102.63,39.47 V42.11 H105.26 V39.47 H102.63 Z M105.26,39.47 V42.11 H107.89 V39.47 H105.26 Z M113.16,39.47 V42.11 H115.79 V39.47 H113.16 Z M123.68,39.47 V42.11 H126.32 V39.47 H123.68 Z M126.32,39.47 V42.11 H128.95 V39.47 H126.32 Z M128.95,39.47 V42.11 H131.58 V39.47 H128.95 Z M131.58,39.47 V42.11 H134.21 V39.47 H131.58 Z M13.16,42.11 V44.74 H15.79 V42.11 H13.16 Z M15.79,42.11 V44.74 H18.42 V42.11 H15.79 Z M26.32,42.11 V44.74 H28.95 V42.11 H26.32 Z M28.95,42.11 V44.74 H31.58 V42.11 H28.95 Z M31.58,42.11 V44.74 H34.21 V42.11 H31.58 Z M47.37,42.11 V44.74 H50 V42.11 H47.37 Z M52.63,42.11 V44.74 H55.26 V42.11 H52.63 Z M55.26,42.11 V44.74 H57.89 V42.11 H55.26 Z M60.53,42.11 V44.74 H63.16 V42.11 H60.53 Z M65.79,42.11 V44.74 H68.42 V42.11 H65.79 Z M73.68,42.11 V44.74 H76.32 V42.11 H73.68 Z M78.95,42.11 V44.74 H81.58 V42.11 H78.95 Z M81.58,42.11 V44.74 H84.21 V42.11 H81.58 Z M94.74,42.11 V44.74 H97.37 V42.11 H94.74 Z M105.26,42.11 V44.74 H107.89 V42.11 H105.26 Z M110.53,42.11 V44.74 H113.16 V42.11 H110.53 Z M118.42,42.11 V44.74 H121.05 V42.11 H118.42 Z M121.05,42.11 V44.74 H123.68 V42.11 H121.05 Z M126.32,42.11 V44.74 H128.95 V42.11 H126.32 Z M128.95,42.11 V44.74 H131.58 V42.11 H128.95 Z M131.58,42.11 V44.74 H134.21 V42.11 H131.58 Z M10.53,44.74 V47.37 H13.16 V44.74 H10.53 Z M13.16,44.74 V47.37 H15.79 V44.74 H13.16 Z M15.79,44.74 V47.37 H18.42 V44.74 H15.79 Z M18.42,44.74 V47.37 H21.05 V44.74 H18.42 Z M21.05,44.74 V47.37 H23.68 V44.74 H21.05 Z M28.95,44.74 V47.37 H31.58 V44.74 H28.95 Z M31.58,44.74 V47.37 H34.21 V44.74 H31.58 Z M39.47,44.74 V47.37 H42.11 V44.74 H39.47 Z M42.11,44.74 V47.37 H44.74 V44.74 H42.11 Z M47.37,44.74 V47.37 H50 V44.74 H47.37 Z M52.63,44.74 V47.37 H55.26 V44.74 H52.63 Z M60.53,44.74 V47.37 H63.16 V44.74 H60.53 Z M73.68,44.74 V47.37 H76.32 V44.74 H73.68 Z M78.95,44.74 V47.37 H81.58 V44.74 H78.95 Z M86.84,44.74 V47.37 H89.47 V44.74 H86.84 Z M89.47,44.74 V47.37 H92.11 V44.74 H89.47 Z M92.11,44.74 V47.37 H94.74 V44.74 H92.11 Z M94.74,44.74 V47.37 H97.37 V44.74 H94.74 Z M97.37,44.74 V47.37 H100.00 V44.74 H97.37 Z M102.63,44.74 V47.37 H105.26 V44.74 H102.63 Z M107.89,44.74 V47.37 H110.53 V44.74 H107.89 Z M110.53,44.74 V47.37 H113.16 V44.74 H110.53 Z M115.79,44.74 V47.37 H118.42 V44.74 H115.79 Z M118.42,44.74 V47.37 H121.05 V44.74 H118.42 Z M121.05,44.74 V47.37 H123.68 V44.74 H121.05 Z M123.68,44.74 V47.37 H126.32 V44.74 H123.68 Z M126.32,44.74 V47.37 H128.95 V44.74 H126.32 Z M134.21,44.74 V47.37 H136.84 V44.74 H134.21 Z M13.16,47.37 V50 H15.79 V47.37 H13.16 Z M15.79,47.37 V50 H18.42 V47.37 H15.79 Z M26.32,47.37 V50 H28.95 V47.37 H26.32 Z M28.95,47.37 V50 H31.58 V47.37 H28.95 Z M31.58,47.37 V50 H34.21 V47.37 H31.58 Z M34.21,47.37 V50 H36.84 V47.37 H34.21 Z M36.84,47.37 V50 H39.47 V47.37 H36.84 Z M39.47,47.37 V50 H42.11 V47.37 H39.47 Z M42.11,47.37 V50 H44.74 V47.37 H42.11 Z M44.74,47.37 V50 H47.37 V47.37 H44.74 Z M47.37,47.37 V50 H50 V47.37 H47.37 Z M50,47.37 V50 H52.63 V47.37 H50 Z M52.63,47.37 V50 H55.26 V47.37 H52.63 Z M60.53,47.37 V50 H63.16 V47.37 H60.53 Z M63.16,47.37 V50 H65.79 V47.37 H63.16 Z M68.42,47.37 V50 H71.05 V47.37 H68.42 Z M86.84,47.37 V50 H89.47 V47.37 H86.84 Z M89.47,47.37 V50 H92.11 V47.37 H89.47 Z M92.11,47.37 V50 H94.74 V47.37 H92.11 Z M94.74,47.37 V50 H97.37 V47.37 H94.74 Z M97.37,47.37 V50 H100.00 V47.37 H97.37 Z M102.63,47.37 V50 H105.26 V47.37 H102.63 Z M107.89,47.37 V50 H110.53 V47.37 H107.89 Z M113.16,47.37 V50 H115.79 V47.37 H113.16 Z M115.79,47.37 V50 H118.42 V47.37 H115.79 Z M121.05,47.37 V50 H123.68 V47.37 H121.05 Z M123.68,47.37 V50 H126.32 V47.37 H123.68 Z M126.32,47.37 V50 H128.95 V47.37 H126.32 Z M136.84,47.37 V50 H139.47 V47.37 H136.84 Z M13.16,50 V52.63 H15.79 V50 H13.16 Z M21.05,50 V52.63 H23.68 V50 H21.05 Z M23.68,50 V52.63 H26.32 V50 H23.68 Z M31.58,50 V52.63 H34.21 V50 H31.58 Z M39.47,50 V52.63 H42.11 V50 H39.47 Z M44.74,50 V52.63 H47.37 V50 H44.74 Z M50,50 V52.63 H52.63 V50 H50 Z M52.63,50 V52.63 H55.26 V50 H52.63 Z M55.26,50 V52.63 H57.89 V50 H55.26 Z M57.89,50 V52.63 H60.53 V50 H57.89 Z M65.79,50 V52.63 H68.42 V50 H65.79 Z M73.68,50 V52.63 H76.32 V50 H73.68 Z M78.95,50 V52.63 H81.58 V50 H78.95 Z M81.58,50 V52.63 H84.21 V50 H81.58 Z M94.74,50 V52.63 H97.37 V50 H94.74 Z M97.37,50 V52.63 H100.00 V50 H97.37 Z M113.16,50 V52.63 H115.79 V50 H113.16 Z M115.79,50 V52.63 H118.42 V50 H115.79 Z M118.42,50 V52.63 H121.05 V50 H118.42 Z M121.05,50 V52.63 H123.68 V50 H121.05 Z M123.68,50 V52.63 H126.32 V50 H123.68 Z M126.32,50 V52.63 H128.95 V50 H126.32 Z M128.95,50 V52.63 H131.58 V50 H128.95 Z M131.58,50 V52.63 H134.21 V50 H131.58 Z M10.53,52.63 V55.26 H13.16 V52.63 H10.53 Z M13.16,52.63 V55.26 H15.79 V52.63 H13.16 Z M15.79,52.63 V55.26 H18.42 V52.63 H15.79 Z M18.42,52.63 V55.26 H21.05 V52.63 H18.42 Z M26.32,52.63 V55.26 H28.95 V52.63 H26.32 Z M31.58,52.63 V55.26 H34.21 V52.63 H31.58 Z M34.21,52.63 V55.26 H36.84 V52.63 H34.21 Z M36.84,52.63 V55.26 H39.47 V52.63 H36.84 Z M47.37,52.63 V55.26 H50 V52.63 H47.37 Z M50,52.63 V55.26 H52.63 V52.63 H50 Z M57.89,52.63 V55.26 H60.53 V52.63 H57.89 Z M71.05,52.63 V55.26 H73.68 V52.63 H71.05 Z M76.32,52.63 V55.26 H78.95 V52.63 H76.32 Z M86.84,52.63 V55.26 H89.47 V52.63 H86.84 Z M97.37,52.63 V55.26 H100.00 V52.63 H97.37 Z M100.00,52.63 V55.26 H102.63 V52.63 H100.00 Z M102.63,52.63 V55.26 H105.26 V52.63 H102.63 Z M105.26,52.63 V55.26 H107.89 V52.63 H105.26 Z M107.89,52.63 V55.26 H110.53 V52.63 H107.89 Z M110.53,52.63 V55.26 H113.16 V52.63 H110.53 Z M113.16,52.63 V55.26 H115.79 V52.63 H113.16 Z M115.79,52.63 V55.26 H118.42 V52.63 H115.79 Z M123.68,52.63 V55.26 H126.32 V52.63 H123.68 Z M10.53,55.26 V57.89 H13.16 V55.26 H10.53 Z M18.42,55.26 V57.89 H21.05 V55.26 H18.42 Z M31.58,55.26 V57.89 H34.21 V55.26 H31.58 Z M36.84,55.26 V57.89 H39.47 V55.26 H36.84 Z M39.47,55.26 V57.89 H42.11 V55.26 H39.47 Z M42.11,55.26 V57.89 H44.74 V55.26 H42.11 Z M44.74,55.26 V57.89 H47.37 V55.26 H44.74 Z M47.37,55.26 V57.89 H50 V55.26 H47.37 Z M57.89,55.26 V57.89 H60.53 V55.26 H57.89 Z M63.16,55.26 V57.89 H65.79 V55.26 H63.16 Z M65.79,55.26 V57.89 H68.42 V55.26 H65.79 Z M68.42,55.26 V57.89 H71.05 V55.26 H68.42 Z M73.68,55.26 V57.89 H76.32 V55.26 H73.68 Z M86.84,55.26 V57.89 H89.47 V55.26 H86.84 Z M92.11,55.26 V57.89 H94.74 V55.26 H92.11 Z M110.53,55.26 V57.89 H113.16 V55.26 H110.53 Z M126.32,55.26 V57.89 H128.95 V55.26 H126.32 Z M131.58,55.26 V57.89 H134.21 V55.26 H131.58 Z M136.84,55.26 V57.89 H139.47 V55.26 H136.84 Z M13.16,57.89 V60.53 H15.79 V57.89 H13.16 Z M18.42,57.89 V60.53 H21.05 V57.89 H18.42 Z M26.32,57.89 V60.53 H28.95 V57.89 H26.32 Z M28.95,57.89 V60.53 H31.58 V57.89 H28.95 Z M31.58,57.89 V60.53 H34.21 V57.89 H31.58 Z M34.21,57.89 V60.53 H36.84 V57.89 H34.21 Z M47.37,57.89 V60.53 H50 V57.89 H47.37 Z M50,57.89 V60.53 H52.63 V57.89 H50 Z M60.53,57.89 V60.53 H63.16 V57.89 H60.53 Z M76.32,57.89 V60.53 H78.95 V57.89 H76.32 Z M86.84,57.89 V60.53 H89.47 V57.89 H86.84 Z M94.74,57.89 V60.53 H97.37 V57.89 H94.74 Z M100.00,57.89 V60.53 H102.63 V57.89 H100.00 Z M107.89,57.89 V60.53 H110.53 V57.89 H107.89 Z M113.16,57.89 V60.53 H115.79 V57.89 H113.16 Z M115.79,57.89 V60.53 H118.42 V57.89 H115.79 Z M118.42,57.89 V60.53 H121.05 V57.89 H118.42 Z M121.05,57.89 V60.53 H123.68 V57.89 H121.05 Z M126.32,57.89 V60.53 H128.95 V57.89 H126.32 Z M128.95,57.89 V60.53 H131.58 V57.89 H128.95 Z M134.21,57.89 V60.53 H136.84 V57.89 H134.21 Z M136.84,57.89 V60.53 H139.47 V57.89 H136.84 Z M13.16,60.53 V63.16 H15.79 V60.53 H13.16 Z M15.79,60.53 V63.16 H18.42 V60.53 H15.79 Z M18.42,60.53 V63.16 H21.05 V60.53 H18.42 Z M23.68,60.53 V63.16 H26.32 V60.53 H23.68 Z M34.21,60.53 V63.16 H36.84 V60.53 H34.21 Z M44.74,60.53 V63.16 H47.37 V60.53 H44.74 Z M50,60.53 V63.16 H52.63 V60.53 H50 Z M55.26,60.53 V63.16 H57.89 V60.53 H55.26 Z M57.89,60.53 V63.16 H60.53 V60.53 H57.89 Z M63.16,60.53 V63.16 H65.79 V60.53 H63.16 Z M65.79,60.53 V63.16 H68.42 V60.53 H65.79 Z M71.05,60.53 V63.16 H73.68 V60.53 H71.05 Z M76.32,60.53 V63.16 H78.95 V60.53 H76.32 Z M78.95,60.53 V63.16 H81.58 V60.53 H78.95 Z M81.58,60.53 V63.16 H84.21 V60.53 H81.58 Z M84.21,60.53 V63.16 H86.84 V60.53 H84.21 Z M89.47,60.53 V63.16 H92.11 V60.53 H89.47 Z M94.74,60.53 V63.16 H97.37 V60.53 H94.74 Z M97.37,60.53 V63.16 H100.00 V60.53 H97.37 Z M100.00,60.53 V63.16 H102.63 V60.53 H100.00 Z M102.63,60.53 V63.16 H105.26 V60.53 H102.63 Z M107.89,60.53 V63.16 H110.53 V60.53 H107.89 Z M110.53,60.53 V63.16 H113.16 V60.53 H110.53 Z M118.42,60.53 V63.16 H121.05 V60.53 H118.42 Z M121.05,60.53 V63.16 H123.68 V60.53 H121.05 Z M123.68,60.53 V63.16 H126.32 V60.53 H123.68 Z M128.95,60.53 V63.16 H131.58 V60.53 H128.95 Z M134.21,60.53 V63.16 H136.84 V60.53 H134.21 Z M136.84,60.53 V63.16 H139.47 V60.53 H136.84 Z M15.79,63.16 V65.79 H18.42 V63.16 H15.79 Z M26.32,63.16 V65.79 H28.95 V63.16 H26.32 Z M39.47,63.16 V65.79 H42.11 V63.16 H39.47 Z M44.74,63.16 V65.79 H47.37 V63.16 H44.74 Z M47.37,63.16 V65.79 H50 V63.16 H47.37 Z M50,63.16 V65.79 H52.63 V63.16 H50 Z M57.89,63.16 V65.79 H60.53 V63.16 H57.89 Z M68.42,63.16 V65.79 H71.05 V63.16 H68.42 Z M73.68,63.16 V65.79 H76.32 V63.16 H73.68 Z M81.58,63.16 V65.79 H84.21 V63.16 H81.58 Z M102.63,63.16 V65.79 H105.26 V63.16 H102.63 Z M113.16,63.16 V65.79 H115.79 V63.16 H113.16 Z M115.79,63.16 V65.79 H118.42 V63.16 H115.79 Z M128.95,63.16 V65.79 H131.58 V63.16 H128.95 Z M131.58,63.16 V65.79 H134.21 V63.16 H131.58 Z M134.21,63.16 V65.79 H136.84 V63.16 H134.21 Z M136.84,63.16 V65.79 H139.47 V63.16 H136.84 Z M13.16,65.79 V68.42 H15.79 V65.79 H13.16 Z M15.79,65.79 V68.42 H18.42 V65.79 H15.79 Z M18.42,65.79 V68.42 H21.05 V65.79 H18.42 Z M21.05,65.79 V68.42 H23.68 V65.79 H21.05 Z M28.95,65.79 V68.42 H31.58 V65.79 H28.95 Z M36.84,65.79 V68.42 H39.47 V65.79 H36.84 Z M42.11,65.79 V68.42 H44.74 V65.79 H42.11 Z M47.37,65.79 V68.42 H50 V65.79 H47.37 Z M52.63,65.79 V68.42 H55.26 V65.79 H52.63 Z M63.16,65.79 V68.42 H65.79 V65.79 H63.16 Z M65.79,65.79 V68.42 H68.42 V65.79 H65.79 Z M71.05,65.79 V68.42 H73.68 V65.79 H71.05 Z M73.68,65.79 V68.42 H76.32 V65.79 H73.68 Z M76.32,65.79 V68.42 H78.95 V65.79 H76.32 Z M84.21,65.79 V68.42 H86.84 V65.79 H84.21 Z M86.84,65.79 V68.42 H89.47 V65.79 H86.84 Z M92.11,65.79 V68.42 H94.74 V65.79 H92.11 Z M94.74,65.79 V68.42 H97.37 V65.79 H94.74 Z M97.37,65.79 V68.42 H100.00 V65.79 H97.37 Z M100.00,65.79 V68.42 H102.63 V65.79 H100.00 Z M102.63,65.79 V68.42 H105.26 V65.79 H102.63 Z M105.26,65.79 V68.42 H107.89 V65.79 H105.26 Z M107.89,65.79 V68.42 H110.53 V65.79 H107.89 Z M113.16,65.79 V68.42 H115.79 V65.79 H113.16 Z M118.42,65.79 V68.42 H121.05 V65.79 H118.42 Z M121.05,65.79 V68.42 H123.68 V65.79 H121.05 Z M123.68,65.79 V68.42 H126.32 V65.79 H123.68 Z M128.95,65.79 V68.42 H131.58 V65.79 H128.95 Z M136.84,65.79 V68.42 H139.47 V65.79 H136.84 Z M13.16,68.42 V71.05 H15.79 V68.42 H13.16 Z M15.79,68.42 V71.05 H18.42 V68.42 H15.79 Z M18.42,68.42 V71.05 H21.05 V68.42 H18.42 Z M21.05,68.42 V71.05 H23.68 V68.42 H21.05 Z M23.68,68.42 V71.05 H26.32 V68.42 H23.68 Z M26.32,68.42 V71.05 H28.95 V68.42 H26.32 Z M28.95,68.42 V71.05 H31.58 V68.42 H28.95 Z M31.58,68.42 V71.05 H34.21 V68.42 H31.58 Z M42.11,68.42 V71.05 H44.74 V68.42 H42.11 Z M44.74,68.42 V71.05 H47.37 V68.42 H44.74 Z M47.37,68.42 V71.05 H50 V68.42 H47.37 Z M50,68.42 V71.05 H52.63 V68.42 H50 Z M68.42,68.42 V71.05 H71.05 V68.42 H68.42 Z M71.05,68.42 V71.05 H73.68 V68.42 H71.05 Z M73.68,68.42 V71.05 H76.32 V68.42 H73.68 Z M76.32,68.42 V71.05 H78.95 V68.42 H76.32 Z M78.95,68.42 V71.05 H81.58 V68.42 H78.95 Z M81.58,68.42 V71.05 H84.21 V68.42 H81.58 Z M89.47,68.42 V71.05 H92.11 V68.42 H89.47 Z M97.37,68.42 V71.05 H100.00 V68.42 H97.37 Z M102.63,68.42 V71.05 H105.26 V68.42 H102.63 Z M110.53,68.42 V71.05 H113.16 V68.42 H110.53 Z M115.79,68.42 V71.05 H118.42 V68.42 H115.79 Z M118.42,68.42 V71.05 H121.05 V68.42 H118.42 Z M121.05,68.42 V71.05 H123.68 V68.42 H121.05 Z M123.68,68.42 V71.05 H126.32 V68.42 H123.68 Z M126.32,68.42 V71.05 H128.95 V68.42 H126.32 Z M131.58,68.42 V71.05 H134.21 V68.42 H131.58 Z M10.53,71.05 V73.68 H13.16 V71.05 H10.53 Z M13.16,71.05 V73.68 H15.79 V71.05 H13.16 Z M15.79,71.05 V73.68 H18.42 V71.05 H15.79 Z M21.05,71.05 V73.68 H23.68 V71.05 H21.05 Z M31.58,71.05 V73.68 H34.21 V71.05 H31.58 Z M34.21,71.05 V73.68 H36.84 V71.05 H34.21 Z M39.47,71.05 V73.68 H42.11 V71.05 H39.47 Z M42.11,71.05 V73.68 H44.74 V71.05 H42.11 Z M44.74,71.05 V73.68 H47.37 V71.05 H44.74 Z M50,71.05 V73.68 H52.63 V71.05 H50 Z M52.63,71.05 V73.68 H55.26 V71.05 H52.63 Z M55.26,71.05 V73.68 H57.89 V71.05 H55.26 Z M63.16,71.05 V73.68 H65.79 V71.05 H63.16 Z M68.42,71.05 V73.68 H71.05 V71.05 H68.42 Z M78.95,71.05 V73.68 H81.58 V71.05 H78.95 Z M81.58,71.05 V73.68 H84.21 V71.05 H81.58 Z M86.84,71.05 V73.68 H89.47 V71.05 H86.84 Z M92.11,71.05 V73.68 H94.74 V71.05 H92.11 Z M97.37,71.05 V73.68 H100.00 V71.05 H97.37 Z M107.89,71.05 V73.68 H110.53 V71.05 H107.89 Z M110.53,71.05 V73.68 H113.16 V71.05 H110.53 Z M113.16,71.05 V73.68 H115.79 V71.05 H113.16 Z M115.79,71.05 V73.68 H118.42 V71.05 H115.79 Z M126.32,71.05 V73.68 H128.95 V71.05 H126.32 Z M131.58,71.05 V73.68 H134.21 V71.05 H131.58 Z M136.84,71.05 V73.68 H139.47 V71.05 H136.84 Z M15.79,73.68 V76.32 H18.42 V73.68 H15.79 Z M18.42,73.68 V76.32 H21.05 V73.68 H18.42 Z M21.05,73.68 V76.32 H23.68 V73.68 H21.05 Z M26.32,73.68 V76.32 H28.95 V73.68 H26.32 Z M31.58,73.68 V76.32 H34.21 V73.68 H31.58 Z M34.21,73.68 V76.32 H36.84 V73.68 H34.21 Z M36.84,73.68 V76.32 H39.47 V73.68 H36.84 Z M42.11,73.68 V76.32 H44.74 V73.68 H42.11 Z M44.74,73.68 V76.32 H47.37 V73.68 H44.74 Z M50,73.68 V76.32 H52.63 V73.68 H50 Z M52.63,73.68 V76.32 H55.26 V73.68 H52.63 Z M55.26,73.68 V76.32 H57.89 V73.68 H55.26 Z M63.16,73.68 V76.32 H65.79 V73.68 H63.16 Z M65.79,73.68 V76.32 H68.42 V73.68 H65.79 Z M68.42,73.68 V76.32 H71.05 V73.68 H68.42 Z M73.68,73.68 V76.32 H76.32 V73.68 H73.68 Z M78.95,73.68 V76.32 H81.58 V73.68 H78.95 Z M81.58,73.68 V76.32 H84.21 V73.68 H81.58 Z M84.21,73.68 V76.32 H86.84 V73.68 H84.21 Z M97.37,73.68 V76.32 H100.00 V73.68 H97.37 Z M102.63,73.68 V76.32 H105.26 V73.68 H102.63 Z M105.26,73.68 V76.32 H107.89 V73.68 H105.26 Z M107.89,73.68 V76.32 H110.53 V73.68 H107.89 Z M113.16,73.68 V76.32 H115.79 V73.68 H113.16 Z M115.79,73.68 V76.32 H118.42 V73.68 H115.79 Z M121.05,73.68 V76.32 H123.68 V73.68 H121.05 Z M126.32,73.68 V76.32 H128.95 V73.68 H126.32 Z M131.58,73.68 V76.32 H134.21 V73.68 H131.58 Z M13.16,76.32 V78.95 H15.79 V76.32 H13.16 Z M21.05,76.32 V78.95 H23.68 V76.32 H21.05 Z M31.58,76.32 V78.95 H34.21 V76.32 H31.58 Z M34.21,76.32 V78.95 H36.84 V76.32 H34.21 Z M42.11,76.32 V78.95 H44.74 V76.32 H42.11 Z M44.74,76.32 V78.95 H47.37 V76.32 H44.74 Z M50,76.32 V78.95 H52.63 V76.32 H50 Z M52.63,76.32 V78.95 H55.26 V76.32 H52.63 Z M55.26,76.32 V78.95 H57.89 V76.32 H55.26 Z M60.53,76.32 V78.95 H63.16 V76.32 H60.53 Z M65.79,76.32 V78.95 H68.42 V76.32 H65.79 Z M68.42,76.32 V78.95 H71.05 V76.32 H68.42 Z M78.95,76.32 V78.95 H81.58 V76.32 H78.95 Z M84.21,76.32 V78.95 H86.84 V76.32 H84.21 Z M100.00,76.32 V78.95 H102.63 V76.32 H100.00 Z M102.63,76.32 V78.95 H105.26 V76.32 H102.63 Z M105.26,76.32 V78.95 H107.89 V76.32 H105.26 Z M107.89,76.32 V78.95 H110.53 V76.32 H107.89 Z M110.53,76.32 V78.95 H113.16 V76.32 H110.53 Z M113.16,76.32 V78.95 H115.79 V76.32 H113.16 Z M115.79,76.32 V78.95 H118.42 V76.32 H115.79 Z M126.32,76.32 V78.95 H128.95 V76.32 H126.32 Z M131.58,76.32 V78.95 H134.21 V76.32 H131.58 Z M136.84,76.32 V78.95 H139.47 V76.32 H136.84 Z M15.79,78.95 V81.58 H18.42 V78.95 H15.79 Z M21.05,78.95 V81.58 H23.68 V78.95 H21.05 Z M23.68,78.95 V81.58 H26.32 V78.95 H23.68 Z M26.32,78.95 V81.58 H28.95 V78.95 H26.32 Z M28.95,78.95 V81.58 H31.58 V78.95 H28.95 Z M31.58,78.95 V81.58 H34.21 V78.95 H31.58 Z M36.84,78.95 V81.58 H39.47 V78.95 H36.84 Z M42.11,78.95 V81.58 H44.74 V78.95 H42.11 Z M52.63,78.95 V81.58 H55.26 V78.95 H52.63 Z M57.89,78.95 V81.58 H60.53 V78.95 H57.89 Z M60.53,78.95 V81.58 H63.16 V78.95 H60.53 Z M63.16,78.95 V81.58 H65.79 V78.95 H63.16 Z M65.79,78.95 V81.58 H68.42 V78.95 H65.79 Z M68.42,78.95 V81.58 H71.05 V78.95 H68.42 Z M71.05,78.95 V81.58 H73.68 V78.95 H71.05 Z M73.68,78.95 V81.58 H76.32 V78.95 H73.68 Z M76.32,78.95 V81.58 H78.95 V78.95 H76.32 Z M78.95,78.95 V81.58 H81.58 V78.95 H78.95 Z M84.21,78.95 V81.58 H86.84 V78.95 H84.21 Z M86.84,78.95 V81.58 H89.47 V78.95 H86.84 Z M92.11,78.95 V81.58 H94.74 V78.95 H92.11 Z M94.74,78.95 V81.58 H97.37 V78.95 H94.74 Z M105.26,78.95 V81.58 H107.89 V78.95 H105.26 Z M107.89,78.95 V81.58 H110.53 V78.95 H107.89 Z M113.16,78.95 V81.58 H115.79 V78.95 H113.16 Z M115.79,78.95 V81.58 H118.42 V78.95 H115.79 Z M118.42,78.95 V81.58 H121.05 V78.95 H118.42 Z M121.05,78.95 V81.58 H123.68 V78.95 H121.05 Z M123.68,78.95 V81.58 H126.32 V78.95 H123.68 Z M126.32,78.95 V81.58 H128.95 V78.95 H126.32 Z M13.16,81.58 V84.21 H15.79 V81.58 H13.16 Z M15.79,81.58 V84.21 H18.42 V81.58 H15.79 Z M21.05,81.58 V84.21 H23.68 V81.58 H21.05 Z M31.58,81.58 V84.21 H34.21 V81.58 H31.58 Z M34.21,81.58 V84.21 H36.84 V81.58 H34.21 Z M36.84,81.58 V84.21 H39.47 V81.58 H36.84 Z M39.47,81.58 V84.21 H42.11 V81.58 H39.47 Z M50,81.58 V84.21 H52.63 V81.58 H50 Z M55.26,81.58 V84.21 H57.89 V81.58 H55.26 Z M60.53,81.58 V84.21 H63.16 V81.58 H60.53 Z M68.42,81.58 V84.21 H71.05 V81.58 H68.42 Z M71.05,81.58 V84.21 H73.68 V81.58 H71.05 Z M76.32,81.58 V84.21 H78.95 V81.58 H76.32 Z M78.95,81.58 V84.21 H81.58 V81.58 H78.95 Z M81.58,81.58 V84.21 H84.21 V81.58 H81.58 Z M86.84,81.58 V84.21 H89.47 V81.58 H86.84 Z M89.47,81.58 V84.21 H92.11 V81.58 H89.47 Z M94.74,81.58 V84.21 H97.37 V81.58 H94.74 Z M100.00,81.58 V84.21 H102.63 V81.58 H100.00 Z M102.63,81.58 V84.21 H105.26 V81.58 H102.63 Z M107.89,81.58 V84.21 H110.53 V81.58 H107.89 Z M121.05,81.58 V84.21 H123.68 V81.58 H121.05 Z M123.68,81.58 V84.21 H126.32 V81.58 H123.68 Z M128.95,81.58 V84.21 H131.58 V81.58 H128.95 Z M131.58,81.58 V84.21 H134.21 V81.58 H131.58 Z M134.21,81.58 V84.21 H136.84 V81.58 H134.21 Z M15.79,84.21 V86.84 H18.42 V84.21 H15.79 Z M23.68,84.21 V86.84 H26.32 V84.21 H23.68 Z M26.32,84.21 V86.84 H28.95 V84.21 H26.32 Z M28.95,84.21 V86.84 H31.58 V84.21 H28.95 Z M34.21,84.21 V86.84 H36.84 V84.21 H34.21 Z M39.47,84.21 V86.84 H42.11 V84.21 H39.47 Z M44.74,84.21 V86.84 H47.37 V84.21 H44.74 Z M47.37,84.21 V86.84 H50 V84.21 H47.37 Z M52.63,84.21 V86.84 H55.26 V84.21 H52.63 Z M55.26,84.21 V86.84 H57.89 V84.21 H55.26 Z M57.89,84.21 V86.84 H60.53 V84.21 H57.89 Z M60.53,84.21 V86.84 H63.16 V84.21 H60.53 Z M76.32,84.21 V86.84 H78.95 V84.21 H76.32 Z M81.58,84.21 V86.84 H84.21 V84.21 H81.58 Z M86.84,84.21 V86.84 H89.47 V84.21 H86.84 Z M89.47,84.21 V86.84 H92.11 V84.21 H89.47 Z M102.63,84.21 V86.84 H105.26 V84.21 H102.63 Z M107.89,84.21 V86.84 H110.53 V84.21 H107.89 Z M118.42,84.21 V86.84 H121.05 V84.21 H118.42 Z M123.68,84.21 V86.84 H126.32 V84.21 H123.68 Z M128.95,84.21 V86.84 H131.58 V84.21 H128.95 Z M131.58,84.21 V86.84 H134.21 V84.21 H131.58 Z M136.84,84.21 V86.84 H139.47 V84.21 H136.84 Z M13.16,86.84 V89.47 H15.79 V86.84 H13.16 Z M21.05,86.84 V89.47 H23.68 V86.84 H21.05 Z M34.21,86.84 V89.47 H36.84 V86.84 H34.21 Z M44.74,86.84 V89.47 H47.37 V86.84 H44.74 Z M50,86.84 V89.47 H52.63 V86.84 H50 Z M55.26,86.84 V89.47 H57.89 V86.84 H55.26 Z M63.16,86.84 V89.47 H65.79 V86.84 H63.16 Z M65.79,86.84 V89.47 H68.42 V86.84 H65.79 Z M76.32,86.84 V89.47 H78.95 V86.84 H76.32 Z M78.95,86.84 V89.47 H81.58 V86.84 H78.95 Z M84.21,86.84 V89.47 H86.84 V86.84 H84.21 Z M86.84,86.84 V89.47 H89.47 V86.84 H86.84 Z M94.74,86.84 V89.47 H97.37 V86.84 H94.74 Z M100.00,86.84 V89.47 H102.63 V86.84 H100.00 Z M102.63,86.84 V89.47 H105.26 V86.84 H102.63 Z M105.26,86.84 V89.47 H107.89 V86.84 H105.26 Z M110.53,86.84 V89.47 H113.16 V86.84 H110.53 Z M113.16,86.84 V89.47 H115.79 V86.84 H113.16 Z M115.79,86.84 V89.47 H118.42 V86.84 H115.79 Z M118.42,86.84 V89.47 H121.05 V86.84 H118.42 Z M121.05,86.84 V89.47 H123.68 V86.84 H121.05 Z M123.68,86.84 V89.47 H126.32 V86.84 H123.68 Z M126.32,86.84 V89.47 H128.95 V86.84 H126.32 Z M134.21,86.84 V89.47 H136.84 V86.84 H134.21 Z M10.53,89.47 V92.11 H13.16 V89.47 H10.53 Z M13.16,89.47 V92.11 H15.79 V89.47 H13.16 Z M15.79,89.47 V92.11 H18.42 V89.47 H15.79 Z M18.42,89.47 V92.11 H21.05 V89.47 H18.42 Z M21.05,89.47 V92.11 H23.68 V89.47 H21.05 Z M23.68,89.47 V92.11 H26.32 V89.47 H23.68 Z M26.32,89.47 V92.11 H28.95 V89.47 H26.32 Z M34.21,89.47 V92.11 H36.84 V89.47 H34.21 Z M36.84,89.47 V92.11 H39.47 V89.47 H36.84 Z M39.47,89.47 V92.11 H42.11 V89.47 H39.47 Z M42.11,89.47 V92.11 H44.74 V89.47 H42.11 Z M44.74,89.47 V92.11 H47.37 V89.47 H44.74 Z M47.37,89.47 V92.11 H50 V89.47 H47.37 Z M57.89,89.47 V92.11 H60.53 V89.47 H57.89 Z M60.53,89.47 V92.11 H63.16 V89.47 H60.53 Z M65.79,89.47 V92.11 H68.42 V89.47 H65.79 Z M76.32,89.47 V92.11 H78.95 V89.47 H76.32 Z M78.95,89.47 V92.11 H81.58 V89.47 H78.95 Z M81.58,89.47 V92.11 H84.21 V89.47 H81.58 Z M86.84,89.47 V92.11 H89.47 V89.47 H86.84 Z M92.11,89.47 V92.11 H94.74 V89.47 H92.11 Z M94.74,89.47 V92.11 H97.37 V89.47 H94.74 Z M97.37,89.47 V92.11 H100.00 V89.47 H97.37 Z M100.00,89.47 V92.11 H102.63 V89.47 H100.00 Z M107.89,89.47 V92.11 H110.53 V89.47 H107.89 Z M113.16,89.47 V92.11 H115.79 V89.47 H113.16 Z M118.42,89.47 V92.11 H121.05 V89.47 H118.42 Z M121.05,89.47 V92.11 H123.68 V89.47 H121.05 Z M128.95,89.47 V92.11 H131.58 V89.47 H128.95 Z M10.53,92.11 V94.74 H13.16 V92.11 H10.53 Z M15.79,92.11 V94.74 H18.42 V92.11 H15.79 Z M31.58,92.11 V94.74 H34.21 V92.11 H31.58 Z M34.21,92.11 V94.74 H36.84 V92.11 H34.21 Z M39.47,92.11 V94.74 H42.11 V92.11 H39.47 Z M52.63,92.11 V94.74 H55.26 V92.11 H52.63 Z M57.89,92.11 V94.74 H60.53 V92.11 H57.89 Z M60.53,92.11 V94.74 H63.16 V92.11 H60.53 Z M65.79,92.11 V94.74 H68.42 V92.11 H65.79 Z M68.42,92.11 V94.74 H71.05 V92.11 H68.42 Z M73.68,92.11 V94.74 H76.32 V92.11 H73.68 Z M76.32,92.11 V94.74 H78.95 V92.11 H76.32 Z M78.95,92.11 V94.74 H81.58 V92.11 H78.95 Z M81.58,92.11 V94.74 H84.21 V92.11 H81.58 Z M86.84,92.11 V94.74 H89.47 V92.11 H86.84 Z M89.47,92.11 V94.74 H92.11 V92.11 H89.47 Z M107.89,92.11 V94.74 H110.53 V92.11 H107.89 Z M110.53,92.11 V94.74 H113.16 V92.11 H110.53 Z M115.79,92.11 V94.74 H118.42 V92.11 H115.79 Z M128.95,92.11 V94.74 H131.58 V92.11 H128.95 Z M131.58,92.11 V94.74 H134.21 V92.11 H131.58 Z M134.21,92.11 V94.74 H136.84 V92.11 H134.21 Z M15.79,94.74 V97.37 H18.42 V94.74 H15.79 Z M21.05,94.74 V97.37 H23.68 V94.74 H21.05 Z M26.32,94.74 V97.37 H28.95 V94.74 H26.32 Z M34.21,94.74 V97.37 H36.84 V94.74 H34.21 Z M39.47,94.74 V97.37 H42.11 V94.74 H39.47 Z M44.74,94.74 V97.37 H47.37 V94.74 H44.74 Z M52.63,94.74 V97.37 H55.26 V94.74 H52.63 Z M55.26,94.74 V97.37 H57.89 V94.74 H55.26 Z M57.89,94.74 V97.37 H60.53 V94.74 H57.89 Z M60.53,94.74 V97.37 H63.16 V94.74 H60.53 Z M81.58,94.74 V97.37 H84.21 V94.74 H81.58 Z M102.63,94.74 V97.37 H105.26 V94.74 H102.63 Z M118.42,94.74 V97.37 H121.05 V94.74 H118.42 Z M121.05,94.74 V97.37 H123.68 V94.74 H121.05 Z M123.68,94.74 V97.37 H126.32 V94.74 H123.68 Z M134.21,94.74 V97.37 H136.84 V94.74 H134.21 Z M13.16,97.37 V100.00 H15.79 V97.37 H13.16 Z M15.79,97.37 V100.00 H18.42 V97.37 H15.79 Z M23.68,97.37 V100.00 H26.32 V97.37 H23.68 Z M31.58,97.37 V100.00 H34.21 V97.37 H31.58 Z M36.84,97.37 V100.00 H39.47 V97.37 H36.84 Z M39.47,97.37 V100.00 H42.11 V97.37 H39.47 Z M47.37,97.37 V100.00 H50 V97.37 H47.37 Z M52.63,97.37 V100.00 H55.26 V97.37 H52.63 Z M55.26,97.37 V100.00 H57.89 V97.37 H55.26 Z M60.53,97.37 V100.00 H63.16 V97.37 H60.53 Z M68.42,97.37 V100.00 H71.05 V97.37 H68.42 Z M81.58,97.37 V100.00 H84.21 V97.37 H81.58 Z M89.47,97.37 V100.00 H92.11 V97.37 H89.47 Z M97.37,97.37 V100.00 H100.00 V97.37 H97.37 Z M110.53,97.37 V100.00 H113.16 V97.37 H110.53 Z M115.79,97.37 V100.00 H118.42 V97.37 H115.79 Z M121.05,97.37 V100.00 H123.68 V97.37 H121.05 Z M131.58,97.37 V100.00 H134.21 V97.37 H131.58 Z M134.21,97.37 V100.00 H136.84 V97.37 H134.21 Z M13.16,100.00 V102.63 H15.79 V100.00 H13.16 Z M26.32,100.00 V102.63 H28.95 V100.00 H26.32 Z M57.89,100.00 V102.63 H60.53 V100.00 H57.89 Z M63.16,100.00 V102.63 H65.79 V100.00 H63.16 Z M71.05,100.00 V102.63 H73.68 V100.00 H71.05 Z M84.21,100.00 V102.63 H86.84 V100.00 H84.21 Z M92.11,100.00 V102.63 H94.74 V100.00 H92.11 Z M100.00,100.00 V102.63 H102.63 V100.00 H100.00 Z M102.63,100.00 V102.63 H105.26 V100.00 H102.63 Z M115.79,100.00 V102.63 H118.42 V100.00 H115.79 Z M123.68,100.00 V102.63 H126.32 V100.00 H123.68 Z M136.84,100.00 V102.63 H139.47 V100.00 H136.84 Z M10.53,102.63 V105.26 H13.16 V102.63 H10.53 Z M13.16,102.63 V105.26 H15.79 V102.63 H13.16 Z M18.42,102.63 V105.26 H21.05 V102.63 H18.42 Z M21.05,102.63 V105.26 H23.68 V102.63 H21.05 Z M23.68,102.63 V105.26 H26.32 V102.63 H23.68 Z M31.58,102.63 V105.26 H34.21 V102.63 H31.58 Z M42.11,102.63 V105.26 H44.74 V102.63 H42.11 Z M44.74,102.63 V105.26 H47.37 V102.63 H44.74 Z M47.37,102.63 V105.26 H50 V102.63 H47.37 Z M52.63,102.63 V105.26 H55.26 V102.63 H52.63 Z M55.26,102.63 V105.26 H57.89 V102.63 H55.26 Z M60.53,102.63 V105.26 H63.16 V102.63 H60.53 Z M71.05,102.63 V105.26 H73.68 V102.63 H71.05 Z M73.68,102.63 V105.26 H76.32 V102.63 H73.68 Z M94.74,102.63 V105.26 H97.37 V102.63 H94.74 Z M102.63,102.63 V105.26 H105.26 V102.63 H102.63 Z M105.26,102.63 V105.26 H107.89 V102.63 H105.26 Z M107.89,102.63 V105.26 H110.53 V102.63 H107.89 Z M110.53,102.63 V105.26 H113.16 V102.63 H110.53 Z M115.79,102.63 V105.26 H118.42 V102.63 H115.79 Z M118.42,102.63 V105.26 H121.05 V102.63 H118.42 Z M121.05,102.63 V105.26 H123.68 V102.63 H121.05 Z M123.68,102.63 V105.26 H126.32 V102.63 H123.68 Z M126.32,102.63 V105.26 H128.95 V102.63 H126.32 Z M131.58,102.63 V105.26 H134.21 V102.63 H131.58 Z M134.21,102.63 V105.26 H136.84 V102.63 H134.21 Z M136.84,102.63 V105.26 H139.47 V102.63 H136.84 Z M15.79,105.26 V107.89 H18.42 V105.26 H15.79 Z M18.42,105.26 V107.89 H21.05 V105.26 H18.42 Z M21.05,105.26 V107.89 H23.68 V105.26 H21.05 Z M26.32,105.26 V107.89 H28.95 V105.26 H26.32 Z M28.95,105.26 V107.89 H31.58 V105.26 H28.95 Z M31.58,105.26 V107.89 H34.21 V105.26 H31.58 Z M34.21,105.26 V107.89 H36.84 V105.26 H34.21 Z M39.47,105.26 V107.89 H42.11 V105.26 H39.47 Z M42.11,105.26 V107.89 H44.74 V105.26 H42.11 Z M52.63,105.26 V107.89 H55.26 V105.26 H52.63 Z M55.26,105.26 V107.89 H57.89 V105.26 H55.26 Z M63.16,105.26 V107.89 H65.79 V105.26 H63.16 Z M68.42,105.26 V107.89 H71.05 V105.26 H68.42 Z M71.05,105.26 V107.89 H73.68 V105.26 H71.05 Z M73.68,105.26 V107.89 H76.32 V105.26 H73.68 Z M76.32,105.26 V107.89 H78.95 V105.26 H76.32 Z M84.21,105.26 V107.89 H86.84 V105.26 H84.21 Z M86.84,105.26 V107.89 H89.47 V105.26 H86.84 Z M89.47,105.26 V107.89 H92.11 V105.26 H89.47 Z M94.74,105.26 V107.89 H97.37 V105.26 H94.74 Z M100.00,105.26 V107.89 H102.63 V105.26 H100.00 Z M105.26,105.26 V107.89 H107.89 V105.26 H105.26 Z M107.89,105.26 V107.89 H110.53 V105.26 H107.89 Z M110.53,105.26 V107.89 H113.16 V105.26 H110.53 Z M113.16,105.26 V107.89 H115.79 V105.26 H113.16 Z M115.79,105.26 V107.89 H118.42 V105.26 H115.79 Z M118.42,105.26 V107.89 H121.05 V105.26 H118.42 Z M126.32,105.26 V107.89 H128.95 V105.26 H126.32 Z M128.95,105.26 V107.89 H131.58 V105.26 H128.95 Z M131.58,105.26 V107.89 H134.21 V105.26 H131.58 Z M136.84,105.26 V107.89 H139.47 V105.26 H136.84 Z M10.53,107.89 V110.53 H13.16 V107.89 H10.53 Z M13.16,107.89 V110.53 H15.79 V107.89 H13.16 Z M18.42,107.89 V110.53 H21.05 V107.89 H18.42 Z M21.05,107.89 V110.53 H23.68 V107.89 H21.05 Z M23.68,107.89 V110.53 H26.32 V107.89 H23.68 Z M34.21,107.89 V110.53 H36.84 V107.89 H34.21 Z M42.11,107.89 V110.53 H44.74 V107.89 H42.11 Z M44.74,107.89 V110.53 H47.37 V107.89 H44.74 Z M47.37,107.89 V110.53 H50 V107.89 H47.37 Z M50,107.89 V110.53 H52.63 V107.89 H50 Z M55.26,107.89 V110.53 H57.89 V107.89 H55.26 Z M57.89,107.89 V110.53 H60.53 V107.89 H57.89 Z M60.53,107.89 V110.53 H63.16 V107.89 H60.53 Z M65.79,107.89 V110.53 H68.42 V107.89 H65.79 Z M71.05,107.89 V110.53 H73.68 V107.89 H71.05 Z M73.68,107.89 V110.53 H76.32 V107.89 H73.68 Z M76.32,107.89 V110.53 H78.95 V107.89 H76.32 Z M78.95,107.89 V110.53 H81.58 V107.89 H78.95 Z M84.21,107.89 V110.53 H86.84 V107.89 H84.21 Z M86.84,107.89 V110.53 H89.47 V107.89 H86.84 Z M89.47,107.89 V110.53 H92.11 V107.89 H89.47 Z M97.37,107.89 V110.53 H100.00 V107.89 H97.37 Z M102.63,107.89 V110.53 H105.26 V107.89 H102.63 Z M105.26,107.89 V110.53 H107.89 V107.89 H105.26 Z M107.89,107.89 V110.53 H110.53 V107.89 H107.89 Z M110.53,107.89 V110.53 H113.16 V107.89 H110.53 Z M113.16,107.89 V110.53 H115.79 V107.89 H113.16 Z M121.05,107.89 V110.53 H123.68 V107.89 H121.05 Z M123.68,107.89 V110.53 H126.32 V107.89 H123.68 Z M126.32,107.89 V110.53 H128.95 V107.89 H126.32 Z M128.95,107.89 V110.53 H131.58 V107.89 H128.95 Z M134.21,107.89 V110.53 H136.84 V107.89 H134.21 Z M136.84,107.89 V110.53 H139.47 V107.89 H136.84 Z M13.16,110.53 V113.16 H15.79 V110.53 H13.16 Z M23.68,110.53 V113.16 H26.32 V110.53 H23.68 Z M26.32,110.53 V113.16 H28.95 V110.53 H26.32 Z M31.58,110.53 V113.16 H34.21 V110.53 H31.58 Z M36.84,110.53 V113.16 H39.47 V110.53 H36.84 Z M42.11,110.53 V113.16 H44.74 V110.53 H42.11 Z M47.37,110.53 V113.16 H50 V110.53 H47.37 Z M52.63,110.53 V113.16 H55.26 V110.53 H52.63 Z M57.89,110.53 V113.16 H60.53 V110.53 H57.89 Z M68.42,110.53 V113.16 H71.05 V110.53 H68.42 Z M78.95,110.53 V113.16 H81.58 V110.53 H78.95 Z M84.21,110.53 V113.16 H86.84 V110.53 H84.21 Z M89.47,110.53 V113.16 H92.11 V110.53 H89.47 Z M100.00,110.53 V113.16 H102.63 V110.53 H100.00 Z M102.63,110.53 V113.16 H105.26 V110.53 H102.63 Z M105.26,110.53 V113.16 H107.89 V110.53 H105.26 Z M110.53,110.53 V113.16 H113.16 V110.53 H110.53 Z M121.05,110.53 V113.16 H123.68 V110.53 H121.05 Z M131.58,110.53 V113.16 H134.21 V110.53 H131.58 Z M13.16,113.16 V115.79 H15.79 V113.16 H13.16 Z M15.79,113.16 V115.79 H18.42 V113.16 H15.79 Z M18.42,113.16 V115.79 H21.05 V113.16 H18.42 Z M31.58,113.16 V115.79 H34.21 V113.16 H31.58 Z M34.21,113.16 V115.79 H36.84 V113.16 H34.21 Z M36.84,113.16 V115.79 H39.47 V113.16 H36.84 Z M50,113.16 V115.79 H52.63 V113.16 H50 Z M60.53,113.16 V115.79 H63.16 V113.16 H60.53 Z M63.16,113.16 V115.79 H65.79 V113.16 H63.16 Z M65.79,113.16 V115.79 H68.42 V113.16 H65.79 Z M84.21,113.16 V115.79 H86.84 V113.16 H84.21 Z M86.84,113.16 V115.79 H89.47 V113.16 H86.84 Z M94.74,113.16 V115.79 H97.37 V113.16 H94.74 Z M100.00,113.16 V115.79 H102.63 V113.16 H100.00 Z M105.26,113.16 V115.79 H107.89 V113.16 H105.26 Z M107.89,113.16 V115.79 H110.53 V113.16 H107.89 Z M110.53,113.16 V115.79 H113.16 V113.16 H110.53 Z M115.79,113.16 V115.79 H118.42 V113.16 H115.79 Z M118.42,113.16 V115.79 H121.05 V113.16 H118.42 Z M123.68,113.16 V115.79 H126.32 V113.16 H123.68 Z M131.58,113.16 V115.79 H134.21 V113.16 H131.58 Z M136.84,113.16 V115.79 H139.47 V113.16 H136.84 Z M10.53,115.79 V118.42 H13.16 V115.79 H10.53 Z M13.16,115.79 V118.42 H15.79 V115.79 H13.16 Z M15.79,115.79 V118.42 H18.42 V115.79 H15.79 Z M26.32,115.79 V118.42 H28.95 V115.79 H26.32 Z M28.95,115.79 V118.42 H31.58 V115.79 H28.95 Z M31.58,115.79 V118.42 H34.21 V115.79 H31.58 Z M36.84,115.79 V118.42 H39.47 V115.79 H36.84 Z M42.11,115.79 V118.42 H44.74 V115.79 H42.11 Z M50,115.79 V118.42 H52.63 V115.79 H50 Z M52.63,115.79 V118.42 H55.26 V115.79 H52.63 Z M57.89,115.79 V118.42 H60.53 V115.79 H57.89 Z M63.16,115.79 V118.42 H65.79 V115.79 H63.16 Z M68.42,115.79 V118.42 H71.05 V115.79 H68.42 Z M71.05,115.79 V118.42 H73.68 V115.79 H71.05 Z M73.68,115.79 V118.42 H76.32 V115.79 H73.68 Z M76.32,115.79 V118.42 H78.95 V115.79 H76.32 Z M78.95,115.79 V118.42 H81.58 V115.79 H78.95 Z M84.21,115.79 V118.42 H86.84 V115.79 H84.21 Z M86.84,115.79 V118.42 H89.47 V115.79 H86.84 Z M92.11,115.79 V118.42 H94.74 V115.79 H92.11 Z M97.37,115.79 V118.42 H100.00 V115.79 H97.37 Z M102.63,115.79 V118.42 H105.26 V115.79 H102.63 Z M105.26,115.79 V118.42 H107.89 V115.79 H105.26 Z M107.89,115.79 V118.42 H110.53 V115.79 H107.89 Z M115.79,115.79 V118.42 H118.42 V115.79 H115.79 Z M118.42,115.79 V118.42 H121.05 V115.79 H118.42 Z M121.05,115.79 V118.42 H123.68 V115.79 H121.05 Z M123.68,115.79 V118.42 H126.32 V115.79 H123.68 Z M126.32,115.79 V118.42 H128.95 V115.79 H126.32 Z M128.95,115.79 V118.42 H131.58 V115.79 H128.95 Z M134.21,115.79 V118.42 H136.84 V115.79 H134.21 Z M34.21,118.42 V121.05 H36.84 V118.42 H34.21 Z M36.84,118.42 V121.05 H39.47 V118.42 H36.84 Z M39.47,118.42 V121.05 H42.11 V118.42 H39.47 Z M44.74,118.42 V121.05 H47.37 V118.42 H44.74 Z M50,118.42 V121.05 H52.63 V118.42 H50 Z M52.63,118.42 V121.05 H55.26 V118.42 H52.63 Z M55.26,118.42 V121.05 H57.89 V118.42 H55.26 Z M57.89,118.42 V121.05 H60.53 V118.42 H57.89 Z M60.53,118.42 V121.05 H63.16 V118.42 H60.53 Z M63.16,118.42 V121.05 H65.79 V118.42 H63.16 Z M65.79,118.42 V121.05 H68.42 V118.42 H65.79 Z M68.42,118.42 V121.05 H71.05 V118.42 H68.42 Z M78.95,118.42 V121.05 H81.58 V118.42 H78.95 Z M81.58,118.42 V121.05 H84.21 V118.42 H81.58 Z M84.21,118.42 V121.05 H86.84 V118.42 H84.21 Z M89.47,118.42 V121.05 H92.11 V118.42 H89.47 Z M92.11,118.42 V121.05 H94.74 V118.42 H92.11 Z M102.63,118.42 V121.05 H105.26 V118.42 H102.63 Z M107.89,118.42 V121.05 H110.53 V118.42 H107.89 Z M110.53,118.42 V121.05 H113.16 V118.42 H110.53 Z M115.79,118.42 V121.05 H118.42 V118.42 H115.79 Z M126.32,118.42 V121.05 H128.95 V118.42 H126.32 Z M10.53,121.05 V123.68 H13.16 V121.05 H10.53 Z M13.16,121.05 V123.68 H15.79 V121.05 H13.16 Z M15.79,121.05 V123.68 H18.42 V121.05 H15.79 Z M18.42,121.05 V123.68 H21.05 V121.05 H18.42 Z M21.05,121.05 V123.68 H23.68 V121.05 H21.05 Z M23.68,121.05 V123.68 H26.32 V121.05 H23.68 Z M26.32,121.05 V123.68 H28.95 V121.05 H26.32 Z M31.58,121.05 V123.68 H34.21 V121.05 H31.58 Z M34.21,121.05 V123.68 H36.84 V121.05 H34.21 Z M39.47,121.05 V123.68 H42.11 V121.05 H39.47 Z M42.11,121.05 V123.68 H44.74 V121.05 H42.11 Z M44.74,121.05 V123.68 H47.37 V121.05 H44.74 Z M55.26,121.05 V123.68 H57.89 V121.05 H55.26 Z M65.79,121.05 V123.68 H68.42 V121.05 H65.79 Z M68.42,121.05 V123.68 H71.05 V121.05 H68.42 Z M73.68,121.05 V123.68 H76.32 V121.05 H73.68 Z M78.95,121.05 V123.68 H81.58 V121.05 H78.95 Z M81.58,121.05 V123.68 H84.21 V121.05 H81.58 Z M84.21,121.05 V123.68 H86.84 V121.05 H84.21 Z M86.84,121.05 V123.68 H89.47 V121.05 H86.84 Z M89.47,121.05 V123.68 H92.11 V121.05 H89.47 Z M97.37,121.05 V123.68 H100.00 V121.05 H97.37 Z M100.00,121.05 V123.68 H102.63 V121.05 H100.00 Z M105.26,121.05 V123.68 H107.89 V121.05 H105.26 Z M110.53,121.05 V123.68 H113.16 V121.05 H110.53 Z M115.79,121.05 V123.68 H118.42 V121.05 H115.79 Z M121.05,121.05 V123.68 H123.68 V121.05 H121.05 Z M126.32,121.05 V123.68 H128.95 V121.05 H126.32 Z M134.21,121.05 V123.68 H136.84 V121.05 H134.21 Z M10.53,123.68 V126.32 H13.16 V123.68 H10.53 Z M26.32,123.68 V126.32 H28.95 V123.68 H26.32 Z M31.58,123.68 V126.32 H34.21 V123.68 H31.58 Z M34.21,123.68 V126.32 H36.84 V123.68 H34.21 Z M42.11,123.68 V126.32 H44.74 V123.68 H42.11 Z M50,123.68 V126.32 H52.63 V123.68 H50 Z M55.26,123.68 V126.32 H57.89 V123.68 H55.26 Z M57.89,123.68 V126.32 H60.53 V123.68 H57.89 Z M60.53,123.68 V126.32 H63.16 V123.68 H60.53 Z M63.16,123.68 V126.32 H65.79 V123.68 H63.16 Z M65.79,123.68 V126.32 H68.42 V123.68 H65.79 Z M68.42,123.68 V126.32 H71.05 V123.68 H68.42 Z M78.95,123.68 V126.32 H81.58 V123.68 H78.95 Z M81.58,123.68 V126.32 H84.21 V123.68 H81.58 Z M86.84,123.68 V126.32 H89.47 V123.68 H86.84 Z M89.47,123.68 V126.32 H92.11 V123.68 H89.47 Z M92.11,123.68 V126.32 H94.74 V123.68 H92.11 Z M97.37,123.68 V126.32 H100.00 V123.68 H97.37 Z M107.89,123.68 V126.32 H110.53 V123.68 H107.89 Z M110.53,123.68 V126.32 H113.16 V123.68 H110.53 Z M113.16,123.68 V126.32 H115.79 V123.68 H113.16 Z M115.79,123.68 V126.32 H118.42 V123.68 H115.79 Z M126.32,123.68 V126.32 H128.95 V123.68 H126.32 Z M128.95,123.68 V126.32 H131.58 V123.68 H128.95 Z M131.58,123.68 V126.32 H134.21 V123.68 H131.58 Z M134.21,123.68 V126.32 H136.84 V123.68 H134.21 Z M10.53,126.32 V128.95 H13.16 V126.32 H10.53 Z M15.79,126.32 V128.95 H18.42 V126.32 H15.79 Z M18.42,126.32 V128.95 H21.05 V126.32 H18.42 Z M21.05,126.32 V128.95 H23.68 V126.32 H21.05 Z M26.32,126.32 V128.95 H28.95 V126.32 H26.32 Z M31.58,126.32 V128.95 H34.21 V126.32 H31.58 Z M36.84,126.32 V128.95 H39.47 V126.32 H36.84 Z M44.74,126.32 V128.95 H47.37 V126.32 H44.74 Z M50,126.32 V128.95 H52.63 V126.32 H50 Z M57.89,126.32 V128.95 H60.53 V126.32 H57.89 Z M60.53,126.32 V128.95 H63.16 V126.32 H60.53 Z M68.42,126.32 V128.95 H71.05 V126.32 H68.42 Z M71.05,126.32 V128.95 H73.68 V126.32 H71.05 Z M73.68,126.32 V128.95 H76.32 V126.32 H73.68 Z M76.32,126.32 V128.95 H78.95 V126.32 H76.32 Z M78.95,126.32 V128.95 H81.58 V126.32 H78.95 Z M84.21,126.32 V128.95 H86.84 V126.32 H84.21 Z M89.47,126.32 V128.95 H92.11 V126.32 H89.47 Z M102.63,126.32 V128.95 H105.26 V126.32 H102.63 Z M105.26,126.32 V128.95 H107.89 V126.32 H105.26 Z M110.53,126.32 V128.95 H113.16 V126.32 H110.53 Z M113.16,126.32 V128.95 H115.79 V126.32 H113.16 Z M115.79,126.32 V128.95 H118.42 V126.32 H115.79 Z M118.42,126.32 V128.95 H121.05 V126.32 H118.42 Z M121.05,126.32 V128.95 H123.68 V126.32 H121.05 Z M123.68,126.32 V128.95 H126.32 V126.32 H123.68 Z M126.32,126.32 V128.95 H128.95 V126.32 H126.32 Z M128.95,126.32 V128.95 H131.58 V126.32 H128.95 Z M10.53,128.95 V131.58 H13.16 V128.95 H10.53 Z M15.79,128.95 V131.58 H18.42 V128.95 H15.79 Z M18.42,128.95 V131.58 H21.05 V128.95 H18.42 Z M21.05,128.95 V131.58 H23.68 V128.95 H21.05 Z M26.32,128.95 V131.58 H28.95 V128.95 H26.32 Z M31.58,128.95 V131.58 H34.21 V128.95 H31.58 Z M36.84,128.95 V131.58 H39.47 V128.95 H36.84 Z M47.37,128.95 V131.58 H50 V128.95 H47.37 Z M52.63,128.95 V131.58 H55.26 V128.95 H52.63 Z M57.89,128.95 V131.58 H60.53 V128.95 H57.89 Z M68.42,128.95 V131.58 H71.05 V128.95 H68.42 Z M73.68,128.95 V131.58 H76.32 V128.95 H73.68 Z M78.95,128.95 V131.58 H81.58 V128.95 H78.95 Z M84.21,128.95 V131.58 H86.84 V128.95 H84.21 Z M89.47,128.95 V131.58 H92.11 V128.95 H89.47 Z M94.74,128.95 V131.58 H97.37 V128.95 H94.74 Z M97.37,128.95 V131.58 H100.00 V128.95 H97.37 Z M100.00,128.95 V131.58 H102.63 V128.95 H100.00 Z M105.26,128.95 V131.58 H107.89 V128.95 H105.26 Z M107.89,128.95 V131.58 H110.53 V128.95 H107.89 Z M115.79,128.95 V131.58 H118.42 V128.95 H115.79 Z M128.95,128.95 V131.58 H131.58 V128.95 H128.95 Z M136.84,128.95 V131.58 H139.47 V128.95 H136.84 Z M10.53,131.58 V134.21 H13.16 V131.58 H10.53 Z M15.79,131.58 V134.21 H18.42 V131.58 H15.79 Z M18.42,131.58 V134.21 H21.05 V131.58 H18.42 Z M21.05,131.58 V134.21 H23.68 V131.58 H21.05 Z M26.32,131.58 V134.21 H28.95 V131.58 H26.32 Z M31.58,131.58 V134.21 H34.21 V131.58 H31.58 Z M36.84,131.58 V134.21 H39.47 V131.58 H36.84 Z M47.37,131.58 V134.21 H50 V131.58 H47.37 Z M52.63,131.58 V134.21 H55.26 V131.58 H52.63 Z M63.16,131.58 V134.21 H65.79 V131.58 H63.16 Z M65.79,131.58 V134.21 H68.42 V131.58 H65.79 Z M68.42,131.58 V134.21 H71.05 V131.58 H68.42 Z M73.68,131.58 V134.21 H76.32 V131.58 H73.68 Z M94.74,131.58 V134.21 H97.37 V131.58 H94.74 Z M105.26,131.58 V134.21 H107.89 V131.58 H105.26 Z M110.53,131.58 V134.21 H113.16 V131.58 H110.53 Z M115.79,131.58 V134.21 H118.42 V131.58 H115.79 Z M118.42,131.58 V134.21 H121.05 V131.58 H118.42 Z M128.95,131.58 V134.21 H131.58 V131.58 H128.95 Z M136.84,131.58 V134.21 H139.47 V131.58 H136.84 Z M10.53,134.21 V136.84 H13.16 V134.21 H10.53 Z M26.32,134.21 V136.84 H28.95 V134.21 H26.32 Z M42.11,134.21 V136.84 H44.74 V134.21 H42.11 Z M44.74,134.21 V136.84 H47.37 V134.21 H44.74 Z M47.37,134.21 V136.84 H50 V134.21 H47.37 Z M50,134.21 V136.84 H52.63 V134.21 H50 Z M52.63,134.21 V136.84 H55.26 V134.21 H52.63 Z M60.53,134.21 V136.84 H63.16 V134.21 H60.53 Z M68.42,134.21 V136.84 H71.05 V134.21 H68.42 Z M71.05,134.21 V136.84 H73.68 V134.21 H71.05 Z M73.68,134.21 V136.84 H76.32 V134.21 H73.68 Z M78.95,134.21 V136.84 H81.58 V134.21 H78.95 Z M81.58,134.21 V136.84 H84.21 V134.21 H81.58 Z M89.47,134.21 V136.84 H92.11 V134.21 H89.47 Z M94.74,134.21 V136.84 H97.37 V134.21 H94.74 Z M97.37,134.21 V136.84 H100.00 V134.21 H97.37 Z M102.63,134.21 V136.84 H105.26 V134.21 H102.63 Z M110.53,134.21 V136.84 H113.16 V134.21 H110.53 Z M113.16,134.21 V136.84 H115.79 V134.21 H113.16 Z M115.79,134.21 V136.84 H118.42 V134.21 H115.79 Z M121.05,134.21 V136.84 H123.68 V134.21 H121.05 Z M123.68,134.21 V136.84 H126.32 V134.21 H123.68 Z M136.84,134.21 V136.84 H139.47 V134.21 H136.84 Z M10.53,136.84 V139.47 H13.16 V136.84 H10.53 Z M13.16,136.84 V139.47 H15.79 V136.84 H13.16 Z M15.79,136.84 V139.47 H18.42 V136.84 H15.79 Z M18.42,136.84 V139.47 H21.05 V136.84 H18.42 Z M21.05,136.84 V139.47 H23.68 V136.84 H21.05 Z M23.68,136.84 V139.47 H26.32 V136.84 H23.68 Z M26.32,136.84 V139.47 H28.95 V136.84 H26.32 Z M36.84,136.84 V139.47 H39.47 V136.84 H36.84 Z M39.47,136.84 V139.47 H42.11 V136.84 H39.47 Z M47.37,136.84 V139.47 H50 V136.84 H47.37 Z M57.89,136.84 V139.47 H60.53 V136.84 H57.89 Z M60.53,136.84 V139.47 H63.16 V136.84 H60.53 Z M63.16,136.84 V139.47 H65.79 V136.84 H63.16 Z M65.79,136.84 V139.47 H68.42 V136.84 H65.79 Z M68.42,136.84 V139.47 H71.05 V136.84 H68.42 Z M73.68,136.84 V139.47 H76.32 V136.84 H73.68 Z M78.95,136.84 V139.47 H81.58 V136.84 H78.95 Z M81.58,136.84 V139.47 H84.21 V136.84 H81.58 Z M89.47,136.84 V139.47 H92.11 V136.84 H89.47 Z M94.74,136.84 V139.47 H97.37 V136.84 H94.74 Z M100.00,136.84 V139.47 H102.63 V136.84 H100.00 Z M102.63,136.84 V139.47 H105.26 V136.84 H102.63 Z M105.26,136.84 V139.47 H107.89 V136.84 H105.26 Z M107.89,136.84 V139.47 H110.53 V136.84 H107.89 Z M110.53,136.84 V139.47 H113.16 V136.84 H110.53 Z M113.16,136.84 V139.47 H115.79 V136.84 H113.16 Z M115.79,136.84 V139.47 H118.42 V136.84 H115.79 Z M121.05,136.84 V139.47 H123.68 V136.84 H121.05 Z M123.68,136.84 V139.47 H126.32 V136.84 H123.68 Z M126.32,136.84 V139.47 H128.95 V136.84 H126.32 Z M128.95,136.84 V139.47 H131.58 V136.84 H128.95 Z M134.21,136.84 V139.47 H136.84 V136.84 H134.21 Z M136.84,136.84 V139.47 H139.47 V136.84 H136.84 Z "></path></svg>